<svg width="16" height="16" viewBox="0 0 16 16" fill="none" xmlns="http://www.w3.org/2000/svg">
<path d="M5.25 0.125C3.665 0.125 2.375 1.415 2.375 3V13C2.375 14.585 3.665 15.875 5.25 15.875H10.75C12.335 15.875 13.625 14.585 13.625 13V3C13.625 1.415 12.335 0.125 10.75 0.125H5.25ZM5.25 0.875H10.75C11.9213 0.875 12.875 1.82875 12.875 3V13C12.875 14.1713 11.9213 15.125 10.75 15.125H5.25C4.07875 15.125 3.125 14.1713 3.125 13V3C3.125 1.82875 4.07875 0.875 5.25 0.875ZM7.375 1.875C7.1675 1.875 7 2.0425 7 2.25C7 2.4575 7.1675 2.625 7.375 2.625H8.625C8.8325 2.625 9 2.4575 9 2.25C9 2.0425 8.8325 1.875 8.625 1.875H7.375Z" fill="white"/>
</svg>
