<svg width="45" height="45" viewBox="0 0 45 45" fill="none" xmlns="http://www.w3.org/2000/svg">
<path d="M40.0781 24.7148H40.0043C40.0289 24.6797 40.0535 24.6445 40.0781 24.6094V22.5C40.0781 12.2941 34.0383 6.4793 26.0156 5.19609V4.92188C26.0156 2.98125 24.4406 1.40625 22.5 1.40625C20.5594 1.40625 18.9844 2.98125 18.9844 4.92188V5.19609C10.9617 6.4793 4.92188 12.2941 4.92188 22.5V24.6094C4.94297 24.6445 4.97109 24.6797 4.9957 24.7148H4.92188C2.98125 24.7148 1.40625 26.2898 1.40625 28.2305C1.40625 29.5699 1.93711 30.8672 2.925 31.7707C8.08594 36.4887 18.9879 36.8895 22.5 36.8895C26.0121 36.8895 36.9105 36.4887 42.075 31.7707C43.0629 30.8672 43.5938 29.5699 43.5938 28.2305C43.5938 26.2898 42.0187 24.7148 40.0781 24.7148Z" fill="white"/>
<path d="M12.3329 29.7809C12.2485 29.7809 12.1641 29.7703 12.0762 29.7492C10.9442 29.468 9.90004 29.134 8.96489 28.7648C8.42348 28.5504 8.15981 27.9352 8.37426 27.3937C8.58871 26.8523 9.20395 26.5887 9.74535 26.8031C10.5891 27.1406 11.5454 27.443 12.586 27.7031C13.152 27.8438 13.4965 28.4168 13.3524 28.9828C13.2364 29.4609 12.8039 29.7809 12.3329 29.7809Z" fill="#0084FF"/>
<path d="M41.1328 23.7867V22.5C41.1328 12.8145 35.877 6.07148 27.0246 4.30664C26.7223 2.07773 24.8098 0.351562 22.5 0.351562C20.1902 0.351562 18.2777 2.07773 17.9754 4.30664C9.12305 6.075 3.86719 12.818 3.86719 22.5V23.7832C1.85273 24.2613 0.351562 26.0719 0.351562 28.2305C0.351562 29.8934 1.03008 31.4684 2.21484 32.5512C7.54102 37.4203 18.1758 37.9477 22.5 37.9477C26.8242 37.9477 37.459 37.4203 42.7852 32.5512C43.9699 31.4684 44.6484 29.8934 44.6484 28.2305C44.6484 26.0754 43.1437 24.2648 41.1328 23.7867ZM41.3613 30.9938C36.443 35.4867 25.6816 35.8348 22.5 35.8348C19.3184 35.8348 8.55352 35.4867 3.63867 30.9938C2.88984 30.3082 2.46094 29.3027 2.46094 28.2305C2.46094 26.8734 3.56484 25.7695 4.92188 25.7695C5.50547 25.7695 5.97656 25.2984 5.97656 24.7148V22.5C5.97656 14.0871 10.4203 8.18438 17.9297 6.47578V10.5469C17.9297 11.1305 18.4008 11.6016 18.9844 11.6016C19.568 11.6016 20.0391 11.1305 20.0391 10.5469V4.92188C20.0391 3.56484 21.143 2.46094 22.5 2.46094C23.857 2.46094 24.9609 3.56484 24.9609 4.92188V10.5469C24.9609 11.1305 25.432 11.6016 26.0156 11.6016C26.5992 11.6016 27.0703 11.1305 27.0703 10.5469V6.47578C34.5797 8.18086 39.0234 14.0836 39.0234 22.5V24.2859C36.7523 27.3727 28.4766 29.2641 19.4871 28.7121C18.9141 28.677 18.4043 29.1199 18.3691 29.7C18.334 30.2801 18.777 30.7828 19.357 30.818C20.3766 30.8813 21.4277 30.9129 22.4895 30.9129C29.7316 30.9129 37.5328 29.4047 40.507 25.8082C41.6602 26.0121 42.5426 27.0176 42.5426 28.2305C42.5391 29.3027 42.1102 30.3082 41.3613 30.9938Z" fill="#0084FF"/>
<path d="M22.5 25.3125C25.4124 25.3125 27.7734 22.9515 27.7734 20.0391C27.7734 17.1266 25.4124 14.7656 22.5 14.7656C19.5876 14.7656 17.2266 17.1266 17.2266 20.0391C17.2266 22.9515 19.5876 25.3125 22.5 25.3125Z" fill="#F68100"/>
</svg>
