<svg width="45" height="45" viewBox="0 0 45 45" fill="none" xmlns="http://www.w3.org/2000/svg">
<path d="M28.8281 17.5781C28.8281 15.6445 27.2461 14.0625 25.3125 14.0625H19.6875H19.2656C17.5078 14.0625 15.9961 15.3984 15.7852 17.1562L14.4141 28.125H18.2812V43.5938H26.7188V28.125C27.8789 28.125 28.8281 27.1758 28.8281 26.0156V17.5781Z" fill="white"/>
<path d="M13.0078 16.1719H7.38281C5.44922 16.1719 3.86719 17.7539 3.86719 19.6875V27.4219C3.86719 28.7227 4.78125 29.8125 5.97656 30.1289V41.4844C5.97656 42.6445 6.92578 43.5938 8.08594 43.5938C9.24609 43.5938 11.1445 43.5938 12.3047 43.5938C13.4648 43.5938 14.4141 42.6445 14.4141 41.4844V30.2344H16.5234V19.6875C16.5234 17.7539 14.9414 16.1719 13.0078 16.1719ZM10.1953 5.625C9.26291 5.625 8.3687 5.9954 7.70939 6.6547C7.05008 7.31401 6.67969 8.20822 6.67969 9.14062C6.67969 10.073 7.05008 10.9672 7.70939 11.6265C8.3687 12.2859 9.26291 12.6562 10.1953 12.6562C11.1277 12.6562 12.0219 12.2859 12.6812 11.6265C13.3405 10.9672 13.7109 10.073 13.7109 9.14062C13.7109 8.20822 13.3405 7.31401 12.6812 6.6547C12.0219 5.9954 11.1277 5.625 10.1953 5.625ZM37.6172 16.1719H31.9922C30.0586 16.1719 28.4766 17.7539 28.4766 19.6875V27.4219C28.4766 28.7227 29.3906 29.8125 30.5859 30.1289V41.3789C30.5859 42.5391 31.4648 43.5586 32.625 43.5586C33.8203 43.5938 35.7891 43.5938 36.9844 43.5586C38.1445 43.5234 39.0234 42.5039 39.0234 41.3789V30.2344C40.1836 30.2344 41.1328 29.2852 41.1328 28.125V19.6875C41.1328 17.7539 39.5508 16.1719 37.6172 16.1719ZM34.8047 5.625C33.8723 5.625 32.9781 5.9954 32.3188 6.6547C31.6595 7.31401 31.2891 8.20822 31.2891 9.14062C31.2891 10.073 31.6595 10.9672 32.3188 11.6265C32.9781 12.2859 33.8723 12.6562 34.8047 12.6562C35.7371 12.6562 36.6313 12.2859 37.2906 11.6265C37.9499 10.9672 38.3203 10.073 38.3203 9.14062C38.3203 8.20822 37.9499 7.31401 37.2906 6.6547C36.6313 5.9954 35.7371 5.625 34.8047 5.625Z" fill="white"/>
<path d="M5.97656 44.6484C5.37891 44.6484 4.92188 44.1914 4.92188 43.5938V30.8672C3.65625 30.2344 2.8125 28.8984 2.8125 27.4219V19.6875C2.8125 17.1562 4.85156 15.1172 7.38281 15.1172H13.0078C13.6055 15.1172 14.0625 15.5742 14.0625 16.1719C14.0625 16.7695 13.6055 17.2266 13.0078 17.2266H7.38281C6.01172 17.2266 4.92188 18.3164 4.92188 19.6875V27.4219C4.92188 28.2305 5.44922 28.9336 6.22266 29.1094C6.67969 29.2148 7.03125 29.6367 7.03125 30.1289V43.5938C7.03125 44.1914 6.57422 44.6484 5.97656 44.6484ZM10.1953 13.7109C7.66406 13.7109 5.625 11.6719 5.625 9.14062C5.625 6.60938 7.66406 4.57031 10.1953 4.57031C12.7266 4.57031 14.7656 6.60938 14.7656 9.14062C14.7656 11.6719 12.7266 13.7109 10.1953 13.7109ZM10.1953 6.67969C8.82422 6.67969 7.73438 7.76953 7.73438 9.14062C7.73438 10.5117 8.82422 11.6016 10.1953 11.6016C11.5664 11.6016 12.6562 10.5117 12.6562 9.14062C12.6562 7.76953 11.5664 6.67969 10.1953 6.67969ZM30.5859 44.6484C29.9883 44.6484 29.5312 44.1914 29.5312 43.5938V33.6445C29.5312 33.0469 29.9883 32.5898 30.5859 32.5898C31.1836 32.5898 31.6406 33.0469 31.6406 33.6445V43.5938C31.6406 44.1914 31.1836 44.6484 30.5859 44.6484ZM39.0234 44.543C38.4258 44.543 37.9688 44.0859 37.9688 43.4883V30.2344C37.9688 29.6367 38.4258 29.1797 39.0234 29.1797C39.6211 29.1797 40.0781 28.7227 40.0781 28.125V19.6875C40.0781 18.3164 38.9883 17.2266 37.6172 17.2266H31.9922C31.3945 17.2266 30.9375 16.7695 30.9375 16.1719C30.9375 15.5742 31.3945 15.1172 31.9922 15.1172H37.6172C40.1484 15.1172 42.1875 17.1562 42.1875 19.6875V28.125C42.1875 29.4961 41.3086 30.6562 40.0781 31.1133V43.5234C40.0781 44.0859 39.6211 44.543 39.0234 44.543ZM34.8047 13.7109C32.2734 13.7109 30.2344 11.6719 30.2344 9.14062C30.2344 6.60938 32.2734 4.57031 34.8047 4.57031C37.3359 4.57031 39.375 6.60938 39.375 9.14062C39.375 11.6719 37.3359 13.7109 34.8047 13.7109ZM34.8047 6.67969C33.4336 6.67969 32.3438 7.76953 32.3438 9.14062C32.3438 10.5117 33.4336 11.6016 34.8047 11.6016C36.1758 11.6016 37.2656 10.5117 37.2656 9.14062C37.2656 7.76953 36.1758 6.67969 34.8047 6.67969Z" fill="#F68100"/>
<path d="M14.4141 37.6172C13.8164 37.6172 13.3594 37.1602 13.3594 36.5625V31.6406C13.3594 31.043 13.8164 30.5859 14.4141 30.5859C15.0117 30.5859 15.4688 31.043 15.4688 31.6406V36.5625C15.4688 37.1602 15.0117 37.6172 14.4141 37.6172Z" fill="#0084FF"/>
<path d="M22.5 3.51562C21.5676 3.51562 20.6734 3.88602 20.0141 4.54533C19.3548 5.20464 18.9844 6.09885 18.9844 7.03125C18.9844 7.96365 19.3548 8.85786 20.0141 9.51717C20.6734 10.1765 21.5676 10.5469 22.5 10.5469C23.4324 10.5469 24.3266 10.1765 24.9859 9.51717C25.6452 8.85786 26.0156 7.96365 26.0156 7.03125C26.0156 6.09885 25.6452 5.20464 24.9859 4.54533C24.3266 3.88602 23.4324 3.51562 22.5 3.51562Z" fill="white"/>
<path d="M22.5 11.6016C19.9688 11.6016 17.9297 9.5625 17.9297 7.03125C17.9297 4.5 19.9688 2.46094 22.5 2.46094C25.0312 2.46094 27.0703 4.5 27.0703 7.03125C27.0703 9.5625 25.0312 11.6016 22.5 11.6016ZM22.5 4.57031C21.1289 4.57031 20.0391 5.66016 20.0391 7.03125C20.0391 8.40234 21.1289 9.49219 22.5 9.49219C23.8711 9.49219 24.9609 8.40234 24.9609 7.03125C24.9609 5.66016 23.8711 4.57031 22.5 4.57031ZM33.3984 42.5391H27.7734V30.5156V30.2344V29.0039C29.0039 28.582 29.8828 27.3867 29.8828 26.0156V19.6875C29.8828 18.1055 29.5664 13.0078 25.3125 13.0078H19.2656C16.9805 13.0078 15.0117 14.7305 14.7305 17.0156L13.3594 27.9844C13.2891 28.5469 13.7109 29.0742 14.2734 29.1445C14.8359 29.2148 15.3633 28.793 15.4336 28.2305L16.8047 17.2617C16.9453 16.0312 18 15.1172 19.2305 15.1172H25.3125C27.457 15.1172 27.7734 17.9648 27.7734 19.6875V26.0156C27.7734 26.6133 27.3164 27.0703 26.7188 27.0703C26.1211 27.0703 25.6641 27.5273 25.6641 28.125V30.2344V30.5156V42.5391H23.5547V30.2344C23.5547 29.6367 23.0977 29.1797 22.5 29.1797C21.9023 29.1797 21.4453 29.6367 21.4453 30.2344V42.5391H19.3359V28.125C19.3359 27.5273 18.8789 27.0703 18.2812 27.0703C17.6836 27.0703 17.2266 27.5273 17.2266 28.125V42.5391H11.6016C11.0039 42.5391 10.5469 42.9961 10.5469 43.5938C10.5469 44.1914 11.0039 44.6484 11.6016 44.6484H33.3984C33.9961 44.6484 34.4531 44.1914 34.4531 43.5938C34.4531 42.9961 33.9961 42.5391 33.3984 42.5391Z" fill="#0084FF"/>
</svg>
