<svg width="45" height="45" viewBox="0 0 45 45" fill="none" xmlns="http://www.w3.org/2000/svg">
<path d="M40.0781 1.40625H4.92188C2.98828 1.40625 1.40625 2.98828 1.40625 4.92188V33.0469C1.40625 34.9805 2.98828 36.5625 4.92188 36.5625H31.6406V43.5938L37.6172 40.0781L43.5938 43.5938V4.92188C43.5938 2.98828 42.0117 1.40625 40.0781 1.40625Z" fill="white"/>
<path d="M24.6094 37.6172H4.92188C2.39062 37.6172 0.351562 35.5781 0.351562 33.0469V4.92188C0.351562 2.39062 2.39062 0.351562 4.92188 0.351562H40.0781C42.6094 0.351562 44.6484 2.39062 44.6484 4.92188V18.9844C44.6484 19.582 44.1914 20.0391 43.5938 20.0391C42.9961 20.0391 42.5391 19.582 42.5391 18.9844V4.92188C42.5391 3.55078 41.4492 2.46094 40.0781 2.46094H4.92188C3.55078 2.46094 2.46094 3.55078 2.46094 4.92188V33.0469C2.46094 34.418 3.55078 35.5078 4.92188 35.5078H24.6094C25.207 35.5078 25.6641 35.9648 25.6641 36.5625C25.6641 37.1602 25.207 37.6172 24.6094 37.6172Z" fill="#0084FF"/>
<path d="M43.5938 44.6484C43.418 44.6484 43.207 44.6133 43.0664 44.5078L37.6172 41.3086L32.168 44.5078C31.8516 44.6836 31.4297 44.7187 31.1133 44.5078C30.7969 44.332 30.5859 43.9805 30.5859 43.5937V36.5625C30.5859 35.9648 31.043 35.5078 31.6406 35.5078C32.2383 35.5078 32.6953 35.9648 32.6953 36.5625V41.7656L37.0898 39.1992C37.4062 38.9883 37.8281 38.9883 38.1445 39.1992L42.5391 41.7656V36.5625C42.5391 35.9648 42.9961 35.5078 43.5938 35.5078C44.1914 35.5078 44.6484 35.9648 44.6484 36.5625V43.5937C44.6484 43.9805 44.4375 44.332 44.1211 44.5078C43.9453 44.6133 43.7695 44.6484 43.5938 44.6484Z" fill="#0084FF"/>
<path d="M37.6172 34.8047C41.5004 34.8047 44.6484 31.6567 44.6484 27.7734C44.6484 23.8902 41.5004 20.7422 37.6172 20.7422C33.7339 20.7422 30.5859 23.8902 30.5859 27.7734C30.5859 31.6567 33.7339 34.8047 37.6172 34.8047Z" fill="#F68100"/>
<path d="M38.3203 13.0078H6.67969C6.08203 13.0078 5.625 12.5508 5.625 11.9531C5.625 11.3555 6.08203 10.8984 6.67969 10.8984H38.3203C38.918 10.8984 39.375 11.3555 39.375 11.9531C39.375 12.5508 38.918 13.0078 38.3203 13.0078Z" fill="#0084FF"/>
<path d="M25.3125 20.0391H6.67969C6.08203 20.0391 5.625 19.582 5.625 18.9844C5.625 18.3867 6.08203 17.9297 6.67969 17.9297H25.3125C25.9102 17.9297 26.3672 18.3867 26.3672 18.9844C26.3672 19.582 25.9102 20.0391 25.3125 20.0391Z" fill="#0084FF"/>
<path d="M18.2812 27.0703H6.67969C6.08203 27.0703 5.625 26.6133 5.625 26.0156C5.625 25.418 6.08203 24.9609 6.67969 24.9609H18.2812C18.8789 24.9609 19.3359 25.418 19.3359 26.0156C19.3359 26.6133 18.8789 27.0703 18.2812 27.0703Z" fill="#0084FF"/>
<path d="M25.3125 27.0703C25.895 27.0703 26.3672 26.5981 26.3672 26.0156C26.3672 25.4331 25.895 24.9609 25.3125 24.9609C24.73 24.9609 24.2578 25.4331 24.2578 26.0156C24.2578 26.5981 24.73 27.0703 25.3125 27.0703Z" fill="#0084FF"/>
</svg>
