<svg width="15" height="17" viewBox="0 0 15 17" fill="none" xmlns="http://www.w3.org/2000/svg">
<path d="M9.28125 7H6C5.73438 7 5.53125 6.79688 5.53125 6.53125C5.53125 6.26562 5.73438 6.0625 6 6.0625H8.8125V2.3125H6C5.73438 2.3125 5.53125 2.10938 5.53125 1.84375C5.53125 1.57812 5.73438 1.375 6 1.375H9.28125C9.54688 1.375 9.75 1.57812 9.75 1.84375V6.53125C9.75 6.79688 9.54688 7 9.28125 7Z" fill="#0084FF"/>
<path d="M13.6562 9.34375H8.03125C7.76562 9.34375 7.5625 9.14062 7.5625 8.875C7.5625 8.60938 7.76562 8.40625 8.03125 8.40625H12.625L12.5937 8.375C11.6875 7.32813 11.6875 5.73438 12.5937 4.6875L12.625 4.65625H11.4687C11.2031 4.65625 11 4.45312 11 4.1875C11 3.92188 11.2031 3.71875 11.4687 3.71875H13.6562C13.8437 3.71875 14 3.82812 14.0781 4C14.1562 4.17187 14.125 4.35938 14 4.5L13.2969 5.3125C12.6875 6.01562 12.6875 7.0625 13.2969 7.76562L14 8.57812C14.125 8.71875 14.1406 8.90625 14.0781 9.07813C14.0156 9.25 13.8437 9.34375 13.6562 9.34375Z" fill="#0084FF"/>
<path d="M11.4688 16.8438C11.4375 16.8438 11.4062 16.8438 11.375 16.8281C11.3438 16.8281 11.3125 16.8125 11.2812 16.7969C11.25 16.7812 11.2344 16.7656 11.2031 16.75C11.1719 16.7344 11.1563 16.7188 11.125 16.6875C11.0312 16.5938 10.9844 16.4844 10.9844 16.3594C10.9844 16.3281 10.9844 16.2969 11 16.2656C11 16.2344 11.0156 16.2031 11.0312 16.1719C11.0469 16.1406 11.0625 16.125 11.0781 16.0938C11.0938 16.0625 11.1094 16.0469 11.1406 16.0312C11.3125 15.8594 11.625 15.8594 11.7969 16.0312C11.8125 16.0469 11.8438 16.0781 11.8594 16.0938C11.875 16.125 11.8906 16.1406 11.9062 16.1719C11.9219 16.2031 11.9219 16.2344 11.9375 16.2656C11.9375 16.2969 11.9531 16.3281 11.9531 16.3594C11.9531 16.4844 11.9062 16.6094 11.8125 16.6875C11.7969 16.7031 11.7656 16.7344 11.75 16.75C11.7188 16.7656 11.7031 16.7812 11.6719 16.7969C11.6406 16.8125 11.6094 16.8125 11.5781 16.8281C11.5312 16.8438 11.5 16.8438 11.4688 16.8438ZM9.125 15.9062H4.90625V1.375C4.90625 1.10938 4.70312 0.90625 4.4375 0.90625C4.17188 0.90625 3.96875 1.10938 3.96875 1.375V15.9062H1.3125C1.04688 15.9062 0.84375 16.1094 0.84375 16.375C0.84375 16.6406 1.04688 16.8438 1.3125 16.8438H9.125C9.39062 16.8438 9.59375 16.6406 9.59375 16.375C9.59375 16.1094 9.39062 15.9062 9.125 15.9062Z" fill="#F68100"/>
</svg>
