<svg width="20" height="19" viewBox="0 0 20 19" fill="none" xmlns="http://www.w3.org/2000/svg">
<path d="M4.5625 15.0781C4.4375 15.0781 4.32812 15.0312 4.23438 14.9531C2.60938 13.3594 1.71875 11.25 1.71875 9C1.71875 4.4375 5.4375 0.71875 10 0.71875C14.5625 0.71875 18.2812 4.4375 18.2812 9C18.2812 9.98438 18.1094 10.9375 17.7812 11.8438C17.6875 12.0938 17.4219 12.2188 17.1875 12.125C16.9375 12.0312 16.8125 11.7656 16.9062 11.5312C17.1875 10.7188 17.3438 9.875 17.3438 9C17.3438 4.95312 14.0469 1.65625 10 1.65625C5.95312 1.65625 2.65625 4.95312 2.65625 9C2.65625 11 3.45312 12.875 4.875 14.2656C5.0625 14.4531 5.0625 14.75 4.89062 14.9219C4.79687 15.0312 4.67188 15.0781 4.5625 15.0781Z" fill="#0084FF"/>
<path d="M7.5 11.9688C7.375 11.9688 7.26562 11.9219 7.17187 11.8281C6.98438 11.6406 6.98438 11.3438 7.17187 11.1719L9.53125 8.8125V5.875C9.53125 5.60938 9.73437 5.40625 10 5.40625C10.2656 5.40625 10.4687 5.60938 10.4687 5.875V9C10.4687 9.125 10.4219 9.25 10.3281 9.32812L7.82812 11.8281C7.73437 11.9219 7.625 11.9688 7.5 11.9688Z" fill="#0084FF"/>
<path d="M19.7656 14.9843C19.7031 14.8749 19.5937 14.8124 19.4687 14.7812L17.2969 14.3749C17.0469 14.328 16.7969 14.4999 16.75 14.7499C16.7031 14.9999 16.875 15.2499 17.125 15.2968L18.2031 15.4999C12.9375 18.8905 5.98436 18.6718 0.921864 14.8749C0.718739 14.7187 0.421864 14.7655 0.265614 14.9687C0.109364 15.1718 0.156239 15.4687 0.359364 15.6249C3.20311 17.7655 6.60936 18.828 10.0156 18.828C13.0469 18.828 16.0781 17.9843 18.7187 16.2812L18.5156 17.328C18.4687 17.578 18.6406 17.828 18.8906 17.8749C18.9219 17.8749 18.9531 17.8905 18.9844 17.8905C19.2031 17.8905 19.4062 17.7343 19.4375 17.5155L19.8437 15.3437C19.8594 15.2187 19.8281 15.0937 19.7656 14.9843Z" fill="#F68100"/>
</svg>
