<svg width="20" height="20" viewBox="0 0 20 20" fill="none" xmlns="http://www.w3.org/2000/svg">
<path d="M5.34375 19.0156C3.125 19.0156 1.1875 17.4375 0.765625 15.25C0.0625 11.7344 0.0625 8.17188 0.765625 4.65625C1.20313 2.46875 3.125 0.890625 5.34375 0.890625C5.71875 0.890625 6.09375 1.0625 6.34375 1.34375C6.59375 1.625 6.70312 2.01562 6.65625 2.39062L6.28125 5.1875C6.14063 6.1875 5.28125 6.9375 4.28125 6.9375C3.9375 6.9375 3.625 6.90625 3.39063 6.85938V13.1562C3.64063 13.0625 3.95313 12.9844 4.28125 12.9844C5.28125 12.9844 6.14063 13.7344 6.28125 14.7344L6.48438 16.2031C6.51563 16.4531 6.34375 16.7031 6.07813 16.7344C5.82813 16.7656 5.57813 16.5938 5.54688 16.3281L5.34375 14.8438C5.26563 14.3125 4.8125 13.9062 4.26563 13.9062C3.70313 13.9062 3.20313 14.2969 3.20313 14.3125C3.0625 14.4219 2.875 14.4531 2.70313 14.375C2.54688 14.2969 2.4375 14.1406 2.4375 13.9531V6.26562C2.4375 6.10937 2.51563 5.96875 2.625 5.89062C2.75 5.79688 2.90625 5.78125 3.04688 5.82812C3.04688 5.82812 3.57813 6 4.26563 6C4.8125 6 5.26563 5.59375 5.34375 5.0625L5.71875 2.26562C5.73438 2.10938 5.67188 2.01563 5.625 1.96875C5.57813 1.92188 5.48438 1.84375 5.34375 1.84375C3.5625 1.84375 2.03125 3.10938 1.6875 4.85938C1.01562 8.25 1.01562 11.7031 1.6875 15.0938C2.03125 16.8438 3.57813 18.1094 5.34375 18.1094C5.60938 18.1094 5.8125 18.3125 5.8125 18.5781C5.8125 18.8438 5.59375 19.0156 5.34375 19.0156Z" fill="#F68100"/>
<path d="M12.5781 19.0625H7.48438C7.21875 19.0625 7.01563 18.8594 7.01563 18.5938C7.01563 18.3281 7.21875 18.125 7.48438 18.125H12.5781C16.0625 18.125 18.9062 15.2812 18.9062 11.7969C18.9062 8.3125 16.0625 5.46875 12.5781 5.46875C9.09375 5.46875 6.25 8.3125 6.25 11.7969C6.25 12.0625 6.04688 12.2656 5.78125 12.2656C5.51562 12.2656 5.3125 12.0625 5.3125 11.7969C5.3125 7.79688 8.57812 4.53125 12.5781 4.53125C16.5781 4.53125 19.8438 7.79688 19.8438 11.7969C19.8438 15.7969 16.5781 19.0625 12.5781 19.0625Z" fill="#0084FF"/>
<path d="M14.5156 14.5938H9.67188C9.40625 14.5938 9.20312 14.3906 9.20312 14.125C9.20312 13.8594 9.40625 13.6562 9.67188 13.6562H14.5312C14.7969 13.6562 15 13.8594 15 14.125C15 14.3906 14.7812 14.5938 14.5156 14.5938Z" fill="#0084FF"/>
<path d="M14.5156 11.6875H9.67188C9.40625 11.6875 9.20312 11.4844 9.20312 11.2188C9.20312 10.9531 9.40625 10.75 9.67188 10.75H14.5312C14.7969 10.75 15 10.9531 15 11.2188C15 11.4844 14.7812 11.6875 14.5156 11.6875Z" fill="#0084FF"/>
</svg>
