<svg width="19" height="14" viewBox="0 0 19 14" fill="none" xmlns="http://www.w3.org/2000/svg">
<path d="M9.78125 13.8751C9.65625 13.8751 9.53125 13.8282 9.45313 13.7344C9.35938 13.6407 9.3125 13.5313 9.3125 13.4063C9.3125 13.2813 9.35938 13.1563 9.45313 13.0782C9.625 12.9063 9.9375 12.9063 10.1094 13.0782C10.2031 13.1719 10.25 13.2813 10.25 13.4063C10.25 13.5313 10.2031 13.6563 10.1094 13.7344C10.0156 13.8282 9.90625 13.8751 9.78125 13.8751ZM12.0625 13.8751C11.9531 13.8751 11.8437 13.8438 11.7656 13.7657C11.5625 13.5938 11.5469 13.2969 11.7188 13.1094L12.1719 12.5782C12.375 12.2657 12.7187 12.0782 13.0781 12.0938C13.4375 12.1094 13.75 12.3126 13.9219 12.6407L14.0625 12.9063C14.0625 12.9219 14.0781 12.9376 14.1094 12.9376C14.1406 12.9376 14.1562 12.9219 14.1562 12.9063L14.4844 11.8594C14.625 11.4219 15 11.1094 15.4531 11.0782C15.9063 11.0313 16.3438 11.2657 16.5469 11.6719L17.0156 12.5626C17.1094 12.7344 17.2656 12.8438 17.4531 12.8751C17.6406 12.9063 17.8281 12.8438 17.9688 12.7032C18.1562 12.5157 18.4531 12.5157 18.625 12.7032C18.8125 12.8907 18.8125 13.1876 18.625 13.3594C18.2812 13.7032 17.7969 13.8594 17.3125 13.7969C16.8281 13.7188 16.4219 13.4376 16.1875 13.0001L15.7188 12.1094C15.6719 12.0157 15.5781 12.0001 15.5313 12.0157C15.4844 12.0157 15.4063 12.0469 15.375 12.1407L15.0469 13.1876C14.9219 13.5782 14.5937 13.8438 14.1875 13.8751C13.7812 13.9063 13.4062 13.6876 13.2188 13.3282L13.0781 13.0626C13.0625 13.0313 13.0469 13.0313 13.0469 13.0313C13.0313 13.0313 12.9844 13.0469 12.9531 13.0938C12.9375 13.1094 12.9219 13.1407 12.9062 13.1563L12.4375 13.7032C12.3281 13.8126 12.2031 13.8751 12.0625 13.8751Z" fill="#F68100"/>
<path d="M7.125 13.875H2.75C1.625 13.875 0.71875 12.9688 0.71875 11.8438V4.1875C0.71875 3.92188 0.921875 3.71875 1.1875 3.71875C1.45312 3.71875 1.65625 3.92188 1.65625 4.1875V11.8438C1.65625 12.4531 2.14062 12.9375 2.75 12.9375H7.125C7.39062 12.9375 7.59375 13.1406 7.59375 13.4062C7.59375 13.6719 7.39062 13.875 7.125 13.875ZM16.8125 9.5C16.5469 9.5 16.3438 9.29688 16.3438 9.03125V4.1875C16.3438 3.92188 16.5469 3.71875 16.8125 3.71875C17.0781 3.71875 17.2812 3.92188 17.2812 4.1875V9.03125C17.2812 9.29688 17.0781 9.5 16.8125 9.5ZM9 7.78125C6.78125 7.78125 4.71875 6.90625 3.1875 5.29687C3.01562 5.10937 3.01562 4.8125 3.20312 4.64063C3.39062 4.46875 3.6875 4.46875 3.85938 4.65625C5.21875 6.0625 7.03125 6.84375 8.98438 6.84375C10.9375 6.84375 12.7656 6.0625 14.1094 4.65625C14.2812 4.46875 14.5781 4.46875 14.7656 4.64063C14.9531 4.8125 14.9531 5.10937 14.7812 5.29687C13.2812 6.90625 11.2188 7.78125 9 7.78125Z" fill="#0084FF"/>
<path d="M16.8125 2.625C16.5469 2.625 16.3438 2.42188 16.3438 2.15625C16.3438 1.54688 15.8594 1.0625 15.25 1.0625H2.75C2.14062 1.0625 1.65625 1.54688 1.65625 2.15625C1.65625 2.42188 1.45312 2.625 1.1875 2.625C0.921875 2.625 0.71875 2.42188 0.71875 2.15625C0.71875 1.03125 1.625 0.125 2.75 0.125H15.25C16.375 0.125 17.2812 1.03125 17.2812 2.15625C17.2812 2.42188 17.0781 2.625 16.8125 2.625Z" fill="#0084FF"/>
</svg>
