<svg width="100" height="100" viewBox="0 0 100 100" fill="none" xmlns="http://www.w3.org/2000/svg">
<path d="M35.9843 21.9863C35.9359 21.9874 35.8876 21.992 35.8398 22H19C14.0414 22 9.99996 26.0415 9.99996 31V50.832C9.98211 50.94 9.98211 51.0502 9.99996 51.1582V69C9.99996 73.9585 14.0414 78 19 78H35.832C35.94 78.0179 36.0502 78.0179 36.1582 78H81C85.9585 78 90 73.9585 90 69V51.168C90.0178 51.06 90.0178 50.9498 90 50.8418V31C90 26.0415 85.9585 22 81 22H36.1543C36.0981 21.9906 36.0413 21.9861 35.9843 21.9863ZM19 24H35V35C34.9981 35.1325 35.0226 35.2641 35.072 35.3871C35.1214 35.51 35.1948 35.6219 35.2878 35.7163C35.3808 35.8107 35.4917 35.8856 35.614 35.9368C35.7362 35.9879 35.8674 36.0143 36 36.0143C36.1325 36.0143 36.2637 35.9879 36.3859 35.9368C36.5082 35.8856 36.6191 35.8107 36.7121 35.7163C36.8052 35.6219 36.8785 35.51 36.9279 35.3871C36.9774 35.2641 37.0018 35.1325 37 35V24H81C84.8774 24 88 27.1225 88 31V50H52C51.8674 49.9981 51.7359 50.0226 51.6129 50.072C51.4899 50.1214 51.378 50.1948 51.2837 50.2879C51.1893 50.3809 51.1143 50.4918 51.0632 50.614C51.0121 50.7363 50.9857 50.8675 50.9857 51C50.9857 51.1325 51.0121 51.2637 51.0632 51.386C51.1143 51.5083 51.1893 51.6191 51.2837 51.7122C51.378 51.8052 51.4899 51.8786 51.6129 51.928C51.7359 51.9774 51.8674 52.0019 52 52H88V69C88 72.8775 84.8774 76 81 76H37V58C37.0018 57.8662 36.9768 57.7334 36.9263 57.6095C36.8759 57.4855 36.8012 57.373 36.7064 57.2785C36.6117 57.1839 36.499 57.1094 36.375 57.0592C36.251 57.009 36.1181 56.9842 35.9843 56.9863C35.7195 56.9905 35.467 57.0995 35.2825 57.2896C35.0979 57.4796 34.9963 57.7351 35 58V76H19C15.1225 76 12 72.8775 12 69V52H20C20.1325 52.0019 20.264 51.9774 20.387 51.928C20.51 51.8786 20.6219 51.8052 20.7163 51.7122C20.8106 51.6191 20.8856 51.5083 20.9367 51.386C20.9879 51.2637 21.0142 51.1325 21.0142 51C21.0142 50.8675 20.9879 50.7363 20.9367 50.614C20.8856 50.4918 20.8106 50.3809 20.7163 50.2879C20.6219 50.1948 20.51 50.1214 20.387 50.072C20.264 50.0226 20.1325 49.9981 20 50H12V31C12 27.1225 15.1225 24 19 24ZM56.5 34C56.4337 33.9991 56.3679 34.0113 56.3064 34.036C56.2449 34.0607 56.189 34.0974 56.1418 34.1439C56.0946 34.1905 56.0572 34.2459 56.0316 34.307C56.006 34.3681 55.9928 34.4338 55.9928 34.5C55.9928 34.5663 56.006 34.6319 56.0316 34.693C56.0572 34.7541 56.0946 34.8096 56.1418 34.8561C56.189 34.9026 56.2449 34.9393 56.3064 34.964C56.3679 34.9887 56.4337 35.0009 56.5 35H69.5C69.5662 35.0009 69.632 34.9887 69.6935 34.964C69.755 34.9393 69.8109 34.9026 69.8581 34.8561C69.9053 34.8096 69.9428 34.7541 69.9683 34.693C69.9939 34.6319 70.0071 34.5663 70.0071 34.5C70.0071 34.4338 69.9939 34.3681 69.9683 34.307C69.9428 34.2459 69.9053 34.1905 69.8581 34.1439C69.8109 34.0974 69.755 34.0607 69.6935 34.036C69.632 34.0113 69.5662 33.9991 69.5 34H56.5ZM72.5 34C72.4337 33.9991 72.3679 34.0113 72.3064 34.036C72.245 34.0607 72.189 34.0974 72.1418 34.1439C72.0946 34.1905 72.0572 34.2459 72.0316 34.307C72.006 34.3681 71.9928 34.4338 71.9928 34.5C71.9928 34.5663 72.006 34.6319 72.0316 34.693C72.0572 34.7541 72.0946 34.8096 72.1418 34.8561C72.189 34.9026 72.245 34.9393 72.3064 34.964C72.3679 34.9887 72.4337 35.0009 72.5 35H81.5C81.5662 35.0009 81.632 34.9887 81.6935 34.964C81.755 34.9393 81.8109 34.9026 81.8581 34.8561C81.9053 34.8096 81.9428 34.7541 81.9683 34.693C81.9939 34.6319 82.0071 34.5663 82.0071 34.5C82.0071 34.4338 81.9939 34.3681 81.9683 34.307C81.9428 34.2459 81.9053 34.1905 81.8581 34.1439C81.8109 34.0974 81.755 34.0607 81.6935 34.036C81.632 34.0113 81.5662 33.9991 81.5 34H72.5ZM30 38C26.1463 38 23 41.1463 23 45C23 48.8537 26.1463 52 30 52H33.5859L26.2929 59.293C26.197 59.3851 26.1203 59.4955 26.0675 59.6176C26.0148 59.7397 25.9869 59.8712 25.9855 60.0042C25.9842 60.1373 26.0094 60.2692 26.0597 60.3924C26.1099 60.5156 26.1843 60.6275 26.2784 60.7216C26.3725 60.8157 26.4844 60.89 26.6076 60.9403C26.7307 60.9906 26.8627 61.0158 26.9957 61.0145C27.1288 61.0131 27.2602 60.9852 27.3823 60.9324C27.5045 60.8796 27.6148 60.803 27.707 60.707L36 52.4141L44.2929 60.707C44.3851 60.803 44.4954 60.8796 44.6176 60.9324C44.7397 60.9852 44.8711 61.0131 45.0042 61.0145C45.1372 61.0158 45.2692 60.9906 45.3924 60.9403C45.5155 60.89 45.6274 60.8157 45.7215 60.7216C45.8156 60.6275 45.89 60.5156 45.9403 60.3924C45.9905 60.2692 46.0158 60.1373 46.0144 60.0042C46.013 59.8712 45.9852 59.7397 45.9324 59.6176C45.8796 59.4955 45.803 59.3851 45.707 59.293L38.414 52H42C45.8537 52 49 48.8537 49 45C49 41.1463 45.8537 38 42 38C39.3963 38 37.2056 39.4989 36 41.6192C34.7943 39.4989 32.6036 38 30 38ZM56.5 38C56.4337 37.9991 56.3679 38.0113 56.3064 38.036C56.2449 38.0607 56.189 38.0974 56.1418 38.1439C56.0946 38.1905 56.0572 38.2459 56.0316 38.307C56.006 38.3681 55.9928 38.4338 55.9928 38.5C55.9928 38.5663 56.006 38.6319 56.0316 38.693C56.0572 38.7541 56.0946 38.8096 56.1418 38.8561C56.189 38.9026 56.2449 38.9393 56.3064 38.964C56.3679 38.9887 56.4337 39.0009 56.5 39H75.5C75.5662 39.0009 75.632 38.9887 75.6935 38.964C75.755 38.9393 75.8109 38.9026 75.8581 38.8561C75.9053 38.8096 75.9428 38.7541 75.9683 38.693C75.9939 38.6319 76.0071 38.5663 76.0071 38.5C76.0071 38.4338 75.9939 38.3681 75.9683 38.307C75.9428 38.2459 75.9053 38.1905 75.8581 38.1439C75.8109 38.0974 75.755 38.0607 75.6935 38.036C75.632 38.0113 75.5662 37.9991 75.5 38H56.5ZM30 40C32.7723 40 35 42.2277 35 45V50H30C27.2277 50 25 47.7723 25 45C25 42.2277 27.2277 40 30 40ZM42 40C44.7723 40 47 42.2277 47 45C47 47.7723 44.7723 50 42 50H37V45C37 42.2277 39.2277 40 42 40ZM57 67C56.7347 67 56.4804 67.1054 56.2929 67.2929C56.1053 67.4804 56 67.7348 56 68C56 68.2652 56.1053 68.5196 56.2929 68.7071C56.4804 68.8947 56.7347 69 57 69C57.2652 69 57.5195 68.8947 57.7071 68.7071C57.8946 68.5196 58 68.2652 58 68C58 67.7348 57.8946 67.4804 57.7071 67.2929C57.5195 67.1054 57.2652 67 57 67ZM61 67C60.7347 67 60.4804 67.1054 60.2929 67.2929C60.1053 67.4804 60 67.7348 60 68C60 68.2652 60.1053 68.5196 60.2929 68.7071C60.4804 68.8947 60.7347 69 61 69C61.2652 69 61.5195 68.8947 61.7071 68.7071C61.8946 68.5196 62 68.2652 62 68C62 67.7348 61.8946 67.4804 61.7071 67.2929C61.5195 67.1054 61.2652 67 61 67ZM65 67C64.7347 67 64.4804 67.1054 64.2929 67.2929C64.1053 67.4804 64 67.7348 64 68C64 68.2652 64.1053 68.5196 64.2929 68.7071C64.4804 68.8947 64.7347 69 65 69C65.2652 69 65.5195 68.8947 65.7071 68.7071C65.8946 68.5196 66 68.2652 66 68C66 67.7348 65.8946 67.4804 65.7071 67.2929C65.5195 67.1054 65.2652 67 65 67ZM69 67C68.7347 67 68.4804 67.1054 68.2929 67.2929C68.1053 67.4804 68 67.7348 68 68C68 68.2652 68.1053 68.5196 68.2929 68.7071C68.4804 68.8947 68.7347 69 69 69C69.2652 69 69.5195 68.8947 69.7071 68.7071C69.8946 68.5196 70 68.2652 70 68C70 67.7348 69.8946 67.4804 69.7071 67.2929C69.5195 67.1054 69.2652 67 69 67ZM73 67C72.7347 67 72.4804 67.1054 72.2929 67.2929C72.1053 67.4804 72 67.7348 72 68C72 68.2652 72.1053 68.5196 72.2929 68.7071C72.4804 68.8947 72.7347 69 73 69C73.2652 69 73.5195 68.8947 73.7071 68.7071C73.8946 68.5196 74 68.2652 74 68C74 67.7348 73.8946 67.4804 73.7071 67.2929C73.5195 67.1054 73.2652 67 73 67ZM77 67C76.7347 67 76.4804 67.1054 76.2929 67.2929C76.1053 67.4804 76 67.7348 76 68C76 68.2652 76.1053 68.5196 76.2929 68.7071C76.4804 68.8947 76.7347 69 77 69C77.2652 69 77.5195 68.8947 77.7071 68.7071C77.8946 68.5196 78 68.2652 78 68C78 67.7348 77.8946 67.4804 77.7071 67.2929C77.5195 67.1054 77.2652 67 77 67ZM81 67C80.7347 67 80.4804 67.1054 80.2929 67.2929C80.1053 67.4804 80 67.7348 80 68C80 68.2652 80.1053 68.5196 80.2929 68.7071C80.4804 68.8947 80.7347 69 81 69C81.2652 69 81.5195 68.8947 81.7071 68.7071C81.8946 68.5196 82 68.2652 82 68C82 67.7348 81.8946 67.4804 81.7071 67.2929C81.5195 67.1054 81.2652 67 81 67Z" fill="white"/>
</svg>
