<svg width="100" height="100" viewBox="0 0 100 100" fill="none" xmlns="http://www.w3.org/2000/svg">
<path d="M42 9C41.7348 9.00003 41.4805 9.10539 41.2929 9.29292C41.1054 9.48045 41 9.73479 41 10V28.4004L41.1699 28.3594C39.5609 28.7613 38.5636 30.417 38.9688 32.0273C39.2263 33.0584 40.0538 33.6883 41 34.0078V36.498L41.1699 36.4551C39.5609 36.857 38.5636 38.5146 38.9688 40.125C39.2263 41.1562 40.0537 41.7861 41 42.1055V44.5957L41.1699 44.5527C39.5609 44.9546 38.5636 46.6123 38.9688 48.2227C39.2263 49.2538 40.0537 49.8837 41 50.2031V50.998C41 52.4932 41.8666 54.2478 43.3301 56.1152C44.7935 57.9827 46.9158 59.8483 49.6309 60.9277C49.7566 60.9779 49.8911 61.002 50.0264 60.9987C50.1617 60.9953 50.2949 60.9645 50.418 60.9082C52.7779 59.8221 54.8587 57.9834 56.3945 56.1387C57.1625 55.2163 57.7917 54.2915 58.2441 53.4316C58.6966 52.5718 59 51.8029 59 50.998V46.3301L58.8301 46.373C60.4384 45.9713 61.4351 44.3148 61.0312 42.7051C60.773 41.6722 59.9452 41.054 59 40.7344V38.2344L58.8281 38.2773C58.8288 38.2767 58.8294 38.276 58.8301 38.2754C60.4384 37.8737 61.4351 36.2191 61.0312 34.6094C60.7732 33.5772 59.9456 32.9582 59 32.6387V30.1367L58.8301 30.1797C60.4384 29.778 61.4351 28.1215 61.0312 26.5117C60.7732 25.4797 59.9456 24.8609 59 24.541V10C59 9.73479 58.8946 9.48045 58.7071 9.29292C58.5195 9.10539 58.2652 9.00003 58 9H42ZM43 11H57V25.2227C57.0002 25.2909 57.0074 25.359 57.0215 25.4258L43 28.9316V11ZM22 25C15.3845 25 10 30.3845 10 37V79C10 85.6155 15.3845 91 22 91H78C84.6155 91 90 85.6155 90 79V37C90 30.3845 84.6155 25 78 25H65C64.7348 25 64.4805 25.1054 64.2929 25.2929C64.1054 25.4805 64 25.7348 64 26V52.9199C64 52.9572 63.6728 54.0528 62.9336 55.2383C62.1944 56.4237 61.1062 57.8479 59.7793 59.2305C57.1562 61.9637 53.5923 64.4777 50 64.9746C46.4077 64.4777 42.8438 61.9637 40.2207 59.2305C38.8938 57.8479 37.8056 56.4237 37.0664 55.2383C36.3272 54.0528 36 52.9572 36 52.9199V26C36 25.7348 35.8946 25.4805 35.7071 25.2929C35.5195 25.1054 35.2652 25 35 25H22ZM58.0605 26.2227C58.1451 26.2192 58.227 26.2363 58.3086 26.2539C58.3407 26.2609 58.3752 26.2594 58.4062 26.2695C58.4701 26.29 58.5272 26.3269 58.5859 26.3594C58.6296 26.3839 58.6771 26.4011 58.7168 26.4316C58.754 26.4599 58.7812 26.4999 58.8145 26.5332C58.8613 26.5806 58.912 26.6238 58.9492 26.6797C59.0121 26.7742 59.0625 26.879 59.0918 26.9961C59.0918 26.9967 59.0918 26.9974 59.0918 26.998C59.0943 27.008 59.0915 27.0174 59.0938 27.0273C59.15 27.2826 59.1111 27.5447 58.9766 27.7695C58.8356 28.0045 58.6117 28.1703 58.3457 28.2363L42.1484 32.2852C42.0987 32.2979 42.0435 32.3001 41.9902 32.3047C41.9837 32.3046 41.9772 32.3046 41.9707 32.3047C41.7403 32.3115 41.7112 32.3164 41.9004 32.3164C41.785 32.3164 41.6747 32.2975 41.5703 32.2617L41.5684 32.2598C41.5673 32.2594 41.5655 32.2601 41.5645 32.2598C41.459 32.2229 41.3605 32.1676 41.2734 32.0996H41.2715C41.0967 31.9626 40.9672 31.7681 40.9102 31.5391C40.8432 31.2741 40.8834 30.9996 41.0234 30.7656C41.1644 30.5306 41.3883 30.3648 41.6543 30.2988L42.2422 30.1523C42.2454 30.1517 42.2487 30.1511 42.252 30.1504L57.8555 26.248C57.9229 26.2314 57.9917 26.2257 58.0605 26.2227ZM22 27H34V52.9199C34 54.0007 34.5478 54.9745 35.3711 56.2949C36.1944 57.6153 37.3562 59.1323 38.7793 60.6152C41.6256 63.5811 45.5099 66.4465 49.875 66.9922C49.958 67.0026 50.042 67.0026 50.125 66.9922C54.4901 66.4465 58.3744 63.5811 61.2207 60.6152C62.6438 59.1323 63.8056 57.6153 64.6289 56.2949C65.4522 54.9745 66 54.0007 66 52.9199V27H78C83.5345 27 88 31.4655 88 37V75.7012C85.6384 76.1999 84.186 77.5601 82.8164 78.7891C81.271 80.1758 79.8336 81.4085 76.9766 81.4961C76.9085 81.4942 76.8408 81.5062 76.7776 81.5314C76.7144 81.5566 76.6569 81.5945 76.6089 81.6427C76.5608 81.6908 76.523 81.7483 76.4979 81.8116C76.4728 81.8749 76.4609 81.9426 76.4629 82.0106C76.4649 82.0787 76.4808 82.1456 76.5095 82.2073C76.5383 82.269 76.5794 82.3241 76.6302 82.3694C76.681 82.4147 76.7406 82.4491 76.8052 82.4705C76.8698 82.492 76.938 82.5 77.0059 82.4941C80.1509 82.3977 81.9225 80.9347 83.4844 79.5332C84.8239 78.3312 86.0214 77.1923 88 76.7246V79C88 84.5345 83.5345 89 78 89H22C16.4655 89 12 84.5345 12 79V76.7246C14.0183 77.2026 15.2221 78.381 16.5938 79.6094C18.1883 81.0374 20.028 82.5 23.3262 82.5C24.178 82.5 24.9345 82.4053 25.6152 82.2383C25.6809 82.2245 25.7431 82.1977 25.7982 82.1593C25.8533 82.121 25.9001 82.072 25.9358 82.0152C25.9716 81.9584 25.9955 81.895 26.0062 81.8288C26.017 81.7625 26.0142 81.6948 25.9982 81.6297C25.9823 81.5645 25.9533 81.5032 25.9131 81.4495C25.873 81.3957 25.8224 81.3506 25.7644 81.3168C25.7064 81.2831 25.6422 81.2613 25.5757 81.2528C25.5091 81.2444 25.4415 81.2494 25.377 81.2676C24.7777 81.4146 24.1044 81.5 23.3262 81.5C20.3123 81.5 18.8297 80.2712 17.2598 78.8652C15.8655 77.6166 14.4062 76.2125 12 75.7031V37C12 31.4655 16.4655 27 22 27ZM57 29.6035V33.3203C57.0002 33.3886 57.0074 33.4566 57.0215 33.5234L43 37.0293V33.3047C42.9998 33.2398 42.9932 33.175 42.9805 33.1113L57 29.6035ZM58.0605 34.3203C58.1425 34.317 58.2216 34.3332 58.3008 34.3496C58.3357 34.357 58.3725 34.3581 58.4062 34.3691C58.4665 34.3885 58.5204 34.4231 58.5762 34.4531C58.623 34.4788 58.6744 34.4967 58.7168 34.5293C58.754 34.5576 58.7812 34.5975 58.8145 34.6309C58.8614 34.6782 58.9119 34.7215 58.9492 34.7773C59.0121 34.8718 59.0625 34.9767 59.0918 35.0938C59.0918 35.0944 59.0918 35.0951 59.0918 35.0957C59.0943 35.1057 59.0915 35.115 59.0938 35.125C59.15 35.3803 59.1111 35.6424 58.9766 35.8672C58.8356 36.1022 58.6117 36.2699 58.3457 36.3359L57.7598 36.4824L42.1484 40.3848C42.1005 40.397 42.0473 40.3976 41.9961 40.4023C41.9876 40.4022 41.9792 40.4022 41.9707 40.4023C41.7403 40.4091 41.7112 40.4141 41.9004 40.4141C41.785 40.4141 41.6747 40.3952 41.5703 40.3594L41.5684 40.3574C41.5673 40.357 41.5655 40.3578 41.5645 40.3574C41.4598 40.3208 41.3619 40.2665 41.2754 40.1992C41.2388 40.1709 41.2122 40.131 41.1797 40.0977C41.1339 40.0507 41.0832 40.0067 41.0469 39.9512C41.0251 39.9177 41.016 39.876 40.998 39.8398C40.9658 39.7745 40.9287 39.713 40.9102 39.6387C40.9102 39.638 40.9102 39.6374 40.9102 39.6367C40.8432 39.3717 40.8834 39.0973 41.0234 38.8633C41.1644 38.6283 41.3883 38.4625 41.6543 38.3965L42.2422 38.25C42.2454 38.2494 42.2487 38.2487 42.252 38.248L57.8555 34.3457C57.9226 34.3289 57.9915 34.3232 58.0605 34.3203ZM57 37.7012V41.416C57.0001 41.4849 57.0073 41.5537 57.0215 41.6211L43 45.127V41.4023C42.9999 41.3368 42.9934 41.2713 42.9805 41.207L57 37.7012ZM58.0664 42.416C58.1337 42.4139 58.1982 42.4303 58.2637 42.4414C58.3133 42.45 58.3647 42.451 58.4121 42.4668C58.4585 42.482 58.4992 42.5097 58.543 42.5312C58.6036 42.5616 58.6671 42.5874 58.7207 42.6289C58.7425 42.6457 58.7569 42.6709 58.7773 42.6895C58.8407 42.747 58.9054 42.8071 58.9531 42.8789C59.0141 42.9719 59.0631 43.0748 59.0918 43.1895V43.1914C59.1588 43.4564 59.1166 43.7308 58.9766 43.9648C58.8356 44.1998 58.6117 44.3656 58.3457 44.4316L57.7578 44.5781C57.7552 44.5788 57.7526 44.5794 57.75 44.5801L42.1484 48.4805C42.0987 48.4932 42.0435 48.4954 41.9902 48.5C41.9837 48.4999 41.9772 48.4999 41.9707 48.5C41.7403 48.5068 41.7112 48.5117 41.9004 48.5117C41.6669 48.5117 41.4496 48.4322 41.2754 48.2969C41.2388 48.2686 41.2122 48.2286 41.1797 48.1953C41.1339 48.1484 41.0832 48.1043 41.0469 48.0488C41.0251 48.0154 41.016 47.9737 40.998 47.9375C40.9658 47.8722 40.9287 47.8106 40.9102 47.7363C40.9102 47.7357 40.9102 47.735 40.9102 47.7344C40.8432 47.4694 40.8834 47.1949 41.0234 46.9609C41.1252 46.7914 41.2803 46.674 41.4531 46.5879C41.5196 46.5554 41.5787 46.513 41.6543 46.4941C41.6543 46.4935 41.6543 46.4928 41.6543 46.4922L42.2422 46.3457C42.2448 46.3451 42.2474 46.3444 42.25 46.3438L57.8535 42.4434C57.9236 42.4269 57.9948 42.4185 58.0664 42.416ZM57 45.7988V50.998C57 51.1912 56.8445 51.7971 56.4746 52.5C56.1047 53.2029 55.5474 54.0307 54.8574 54.8594C53.5722 56.403 51.8065 57.8973 49.9746 58.8379C47.8647 57.8959 46.1039 56.4116 44.9043 54.8809C43.6235 53.2465 43 51.4989 43 50.998V49.498C42.9998 49.4331 42.9932 49.3684 42.9805 49.3047L57 45.7988ZM36.6562 75.5C34.2193 75.5 32.5615 76.2933 31.2363 77.2891C29.9111 78.2848 28.8939 79.449 27.6152 80.2832C27.5602 80.3191 27.5128 80.3655 27.4757 80.4197C27.4386 80.474 27.4126 80.535 27.3991 80.5993C27.3855 80.6636 27.3848 80.7299 27.3969 80.7945C27.4091 80.859 27.4338 80.9206 27.4697 80.9756C27.5056 81.0306 27.552 81.078 27.6062 81.1151C27.6605 81.1522 27.7215 81.1783 27.7858 81.1918C27.8501 81.2053 27.9164 81.206 27.981 81.1939C28.0455 81.1817 28.1071 81.157 28.1621 81.1211C29.5874 80.1913 30.6211 79.0041 31.8379 78.0898C33.0547 77.1756 34.4292 76.5 36.6562 76.5C39.8398 76.5 41.3214 77.8711 42.9883 79.3711C44.6552 80.8711 46.5063 82.5 49.9902 82.5C53.4728 82.5 55.324 80.8711 56.9902 79.3711C58.6565 77.8711 60.1379 76.5 63.3203 76.5C66.7929 76.5 68.2559 78.1357 70.1133 79.7793C70.1618 79.8265 70.2193 79.8633 70.2825 79.8876C70.3456 79.9119 70.413 79.9232 70.4806 79.9206C70.5483 79.9181 70.6147 79.9019 70.6758 79.873C70.737 79.8441 70.7916 79.803 70.8365 79.7524C70.8813 79.7017 70.9154 79.6425 70.9367 79.5782C70.958 79.514 70.966 79.4461 70.9603 79.3787C70.9546 79.3113 70.9353 79.2458 70.9035 79.186C70.8717 79.1263 70.8281 79.0736 70.7754 79.0312C68.9668 77.4308 67.1198 75.5 63.3203 75.5C59.8378 75.5 57.9885 77.1289 56.3223 78.6289C54.656 80.1289 53.1727 81.5 49.9902 81.5C46.8062 81.5 45.3251 80.1289 43.6582 78.6289C41.9913 77.1289 40.1397 75.5 36.6562 75.5ZM72.668 80.541C72.556 80.5398 72.4468 80.5763 72.358 80.6446C72.2692 80.7128 72.2059 80.8089 72.1782 80.9174C72.1505 81.0259 72.1601 81.1406 72.2053 81.243C72.2506 81.3455 72.3289 81.4298 72.4277 81.4824C72.9693 81.7776 73.568 82.0292 74.2441 82.207C74.3078 82.2243 74.3742 82.2288 74.4396 82.2203C74.505 82.2118 74.568 82.1905 74.6251 82.1575C74.6822 82.1245 74.7322 82.0806 74.7723 82.0283C74.8124 81.9759 74.8417 81.9161 74.8585 81.8524C74.8754 81.7886 74.8795 81.7222 74.8706 81.6569C74.8617 81.5915 74.8399 81.5286 74.8066 81.4717C74.7733 81.4148 74.729 81.3651 74.6764 81.3254C74.6238 81.2856 74.5638 81.2567 74.5 81.2402C73.9062 81.0841 73.3847 80.8663 72.9062 80.6055C72.8335 80.5644 72.7515 80.5423 72.668 80.541Z" fill="white"/>
</svg>
