<svg width="14" height="13" viewBox="0 0 14 13" fill="none" xmlns="http://www.w3.org/2000/svg">
<path d="M6.78508 0.454009C6.50367 0.479759 6.25312 0.684852 6.18612 0.981352L5.81633 2.61156L4.00903 4.61937C3.78837 4.86404 3.66659 5.18197 3.66659 5.5113V11.6662C3.66659 12.4029 4.26325 12.9996 4.99992 12.9996H10.3541C10.8481 12.9996 11.2953 12.7087 11.496 12.2574L13.4973 7.75349C13.6086 7.50415 13.6666 7.23385 13.6666 6.96052V6.33291C13.6666 5.59958 13.0666 4.99958 12.3333 4.99958H7.66659C7.66659 4.99958 8.33325 3.4191 8.33325 2.24177C8.33325 1.16644 7.64153 0.6958 7.07153 0.490467C6.97637 0.455967 6.87888 0.445425 6.78508 0.454009ZM1.33325 4.99958C0.781252 4.99958 0.333252 5.44758 0.333252 5.99958V11.9996C0.333252 12.5516 0.781252 12.9996 1.33325 12.9996C1.88525 12.9996 2.33325 12.5516 2.33325 11.9996V5.99958C2.33325 5.44758 1.88525 4.99958 1.33325 4.99958Z" fill="#CDE1EF"/>
</svg>
