<svg width="14" height="13" viewBox="0 0 14 13" fill="none" xmlns="http://www.w3.org/2000/svg">
<path d="M7.21492 12.546C7.49633 12.5202 7.74688 12.3151 7.81388 12.0186L8.18368 10.3884L9.99097 8.38063C10.2116 8.13596 10.3334 7.81803 10.3334 7.4887L10.3334 1.33375C10.3334 0.597086 9.73675 0.000418319 9.00008 0.000418255L3.64592 0.000417787C3.15192 0.000417744 2.70465 0.291272 2.50399 0.742605L0.502686 5.24651C0.391352 5.49584 0.333415 5.76615 0.333415 6.03948L0.333415 6.66708C0.333415 7.40042 0.933415 8.00042 1.66675 8.00042L6.33341 8.00042C6.33341 8.00042 5.66675 9.5809 5.66675 10.7582C5.66675 11.8336 6.35847 12.3042 6.92847 12.5095C7.02363 12.544 7.12112 12.5546 7.21492 12.546ZM12.6667 8.00042C13.2187 8.00042 13.6667 7.55242 13.6667 7.00042L13.6667 1.00042C13.6667 0.448419 13.2187 0.000418624 12.6667 0.000418576C12.1147 0.000418527 11.6667 0.448418 11.6667 1.00042L11.6667 7.00042C11.6667 7.55242 12.1147 8.00042 12.6667 8.00042Z" fill="#CDE1EF"/>
</svg>
