<svg width="14" height="18" viewBox="0 0 14 18" fill="none" xmlns="http://www.w3.org/2000/svg">
<path d="M4.93363 0.672312C4.65936 0.652359 4.37832 0.680393 4.10274 0.761831L3.11641 1.05399C2.06539 1.36482 1.24418 2.19873 0.966348 3.25125C0.349442 5.59198 1.05516 8.36257 2.8918 11.4812C4.72587 14.5956 6.81572 16.5749 9.17598 17.221C10.2389 17.5119 11.3852 17.234 12.1903 16.4861L12.9406 15.7903C13.7802 15.0108 13.9054 13.7124 13.2271 12.7898L12.1431 11.3177C11.562 10.5284 10.5378 10.1924 9.59591 10.4754L7.89994 10.9832C7.82875 11.004 7.65839 10.907 7.51013 10.7789L7.50932 10.7781C7.24526 10.5485 6.8794 10.0844 6.488 9.42069V9.41987C6.0683 8.70707 5.88929 8.2409 5.81742 7.96561C5.74552 7.69019 5.76297 7.65669 5.77348 7.56359C5.77894 7.51714 5.80101 7.4741 5.83858 7.43989L5.8394 7.43908L7.10404 6.28267C7.82858 5.62031 8.04731 4.56183 7.63871 3.67117L6.87618 2.00776V2.00695C6.51718 1.22441 5.75624 0.732156 4.93363 0.672312ZM4.8433 1.91906C5.22588 1.94764 5.57818 2.17712 5.7393 2.5286L6.50264 4.19201C6.68738 4.59468 6.59474 5.05548 6.26094 5.36063L4.9963 6.51623C4.73704 6.75261 4.57125 7.0749 4.53162 7.4228V7.42362C4.52129 7.5151 4.49689 7.85532 4.60811 8.28136C4.71934 8.7074 4.94897 9.27091 5.41052 10.0546H5.41134C5.842 10.7851 6.24902 11.34 6.68982 11.7229H6.69063C6.83378 11.8469 7.43374 12.4219 8.24988 12.1835L8.25232 12.1827L9.95561 11.6725C10.3979 11.5396 10.8708 11.6983 11.1364 12.059L12.2204 13.5312C12.5274 13.9494 12.4737 14.5179 12.0902 14.874L11.3399 15.5706C10.86 16.0165 10.1474 16.1906 9.50557 16.0149C7.59751 15.4926 5.70938 13.8021 3.96928 10.8473C2.22676 7.88844 1.68175 5.4412 2.17484 3.57026C2.33784 2.95278 2.83725 2.44021 3.47123 2.25272L4.45675 1.96056C4.58512 1.92262 4.71577 1.90953 4.8433 1.91906Z" fill="white"/>
</svg>
