<svg width="60" height="60" viewBox="0 0 60 60" fill="none" xmlns="http://www.w3.org/2000/svg">
<path d="M51.1875 48.1875C47.4844 48.1875 44.0156 46.1719 42.1875 42.9375L39.4219 38.0156C39.0469 37.3594 39.2812 36.4688 39.9375 36.0938C40.5938 35.7188 41.4844 35.9531 41.8594 36.6094L42.6562 38.0625L54.5625 35.4375C54.9844 35.3437 55.4062 35.4375 55.7344 35.7187C56.0625 36 56.25 36.375 56.25 36.7969V44.4844C56.25 46.0781 55.1719 47.4375 53.625 47.8125C52.8281 48.0937 51.9844 48.1875 51.1875 48.1875ZM44.1094 40.6875L44.625 41.625C45.9375 43.9688 48.4688 45.4219 51.1406 45.4219C51.75 45.4219 52.3594 45.3281 52.9688 45.1875C53.25 45.1406 53.4375 44.8594 53.4375 44.5781V38.625L44.1094 40.6875ZM11.2969 33.2344C10.5 33.2344 9.89062 32.625 9.89062 31.8281V28.5938C9.89062 27.375 10.875 26.3906 12.0937 26.3906H17.8125C18.6094 26.3906 19.2188 27 19.2188 27.7969C19.2188 28.5938 18.6094 29.2031 17.8125 29.2031H12.7031V31.8281C12.7031 32.625 12.0938 33.2344 11.2969 33.2344Z" fill="#F68100"/>
<path d="M34.125 54.2344H9.65625C6.65625 54.2344 4.21875 51.7969 4.21875 48.7969C4.21875 45.7969 6.65625 43.3594 9.65625 43.3594H34.125C37.125 43.3594 39.5625 45.7969 39.5625 48.7969C39.5625 51.7969 37.125 54.2344 34.125 54.2344ZM9.65625 46.1719C8.20313 46.1719 7.03125 47.3438 7.03125 48.7969C7.03125 50.25 8.20313 51.4219 9.65625 51.4219H34.125C35.5781 51.4219 36.75 50.25 36.75 48.7969C36.75 47.3438 35.5781 46.1719 34.125 46.1719H9.65625ZM18.2344 41.7188H6.42188C5.20312 41.7188 4.21875 40.7344 4.21875 39.5156V32.625C4.21875 31.4062 5.20312 30.4219 6.42188 30.4219H17.8125C18.6094 30.4219 19.2188 31.0312 19.2188 31.8281C19.2188 32.625 18.6094 33.2344 17.8125 33.2344H7.03125V38.9062H18.2344C19.0313 38.9062 19.6406 39.5156 19.6406 40.3125C19.6406 41.1094 19.0313 41.7188 18.2344 41.7188Z" fill="#0084FF"/>
<path d="M17.8125 41.7188C17.4375 41.7188 17.0625 41.5781 16.8281 41.2969C16.5469 41.0625 16.4062 40.6875 16.4062 40.3125V21.75C16.4062 20.9531 17.0156 20.3438 17.8125 20.3438H25.5938C26.8125 20.3438 27.9375 21 28.5938 22.0312L33.5625 30.5625C34.0312 31.4062 34.3125 32.3438 34.3125 33.2812V38.25C34.3125 40.125 32.7656 41.6719 30.8906 41.6719L17.8125 41.7188ZM19.2188 23.1563V38.9062H30.8438C31.1719 38.9062 31.4531 38.625 31.4531 38.2969V33.3281C31.4531 32.8594 31.3125 32.4375 31.0781 32.0156L26.1562 23.4844C26.0625 23.2969 25.8281 23.1563 25.5938 23.1563H19.2188Z" fill="#0084FF"/>
<path d="M32.8594 38.1095C32.7656 38.1095 32.625 38.1095 32.5313 38.0626L23.625 35.9532C22.0313 35.6251 20.9062 34.2189 20.9062 32.5782V25.7814C20.9062 24.9845 21.5156 24.3751 22.3125 24.3751C23.1094 24.3751 23.7188 24.9845 23.7188 25.7814V32.5782C23.7188 32.8595 23.9531 33.1407 24.2344 33.1876H24.2813L33.1875 35.297C33.9375 35.4845 34.4063 36.2345 34.2188 36.9845C34.0781 37.6407 33.5156 38.1095 32.8594 38.1095ZM32.3438 24.7032C32.0625 24.7032 31.8281 24.6095 31.5938 24.4689C30.9375 24.047 30.75 23.1564 31.1719 22.547L41.1563 7.172C41.3438 6.89075 41.25 6.56262 41.0156 6.37512C40.7344 6.18762 40.4063 6.2345 40.2188 6.46887L27.3281 22.7345C26.8594 23.3439 25.9688 23.4376 25.3594 22.9689C24.75 22.5001 24.6562 21.6095 25.125 21.0001L37.9688 4.7345C39.0938 3.32825 41.1563 3.00012 42.6094 4.07825C44.1094 5.15637 44.4844 7.172 43.5 8.672L33.5156 24.047C33.2344 24.4689 32.8125 24.7032 32.3438 24.7032Z" fill="#0084FF"/>
<path d="M52.5469 33.5624C51.4219 33.5624 50.3438 32.9999 49.7344 31.9687L40.5 16.6405C40.0782 15.9843 40.3125 15.0937 40.9688 14.7187C41.625 14.2968 42.5157 14.5312 42.8907 15.1874L52.0782 30.5155C52.2188 30.7499 52.5 30.7968 52.6875 30.703C52.875 30.5624 52.9688 30.328 52.8282 30.1405L41.1563 8.99992C40.7813 8.34367 41.0157 7.45304 41.7188 7.07804C42.375 6.70304 43.2657 6.93742 43.6407 7.64054L55.4063 28.7812C56.25 30.328 55.7344 32.2968 54.1875 33.1405C53.6719 33.4218 53.1094 33.5624 52.5469 33.5624Z" fill="#0084FF"/>
</svg>
