<svg width="60" height="60" viewBox="0 0 60 60" fill="none" xmlns="http://www.w3.org/2000/svg">
<path d="M55.7812 13.5938H4.21875V6.5625C4.21875 5.25 5.25 4.21875 6.5625 4.21875H53.4375C54.75 4.21875 55.7812 5.25 55.7812 6.5625V13.5938Z" fill="#C7D7E2"/>
<path d="M11.25 19.2539C10.8867 19.2539 10.5234 19.3828 10.2656 19.6406C9.98437 19.875 9.84375 20.25 9.84375 20.625C9.84375 21 9.98437 21.375 10.2656 21.6094C10.5 21.8906 10.875 22.0312 11.25 22.0312C11.625 22.0312 12 21.8906 12.2344 21.6094C12.5156 21.375 12.6562 21 12.6562 20.625C12.6562 20.25 12.5156 19.9219 12.2344 19.6406C11.9766 19.3828 11.6133 19.2539 11.25 19.2539ZM22.0312 19.2539C21.668 19.2539 21.3047 19.3828 21.0469 19.6406C20.7656 19.875 20.625 20.25 20.625 20.625C20.625 21 20.7656 21.375 21.0469 21.6094C21.2813 21.8906 21.6562 22.0312 22.0312 22.0312C22.4062 22.0312 22.7812 21.8906 23.0156 21.6094C23.2969 21.375 23.4375 21 23.4375 20.625C23.4375 20.25 23.2969 19.9219 23.0156 19.6406C22.7578 19.3828 22.3945 19.2539 22.0312 19.2539ZM18.2812 19.2188H15.9375C15.1406 19.2188 14.5312 19.8281 14.5312 20.625C14.5312 21.4219 15.1406 22.0312 15.9375 22.0312H18.2812C19.0781 22.0312 19.6875 21.4219 19.6875 20.625C19.6875 19.8281 19.0781 19.2188 18.2812 19.2188ZM21.75 29.3906C21.2109 29.3906 20.6719 29.5781 20.2969 29.9531C19.9219 30.3281 19.6875 30.8437 19.6875 31.4062C19.6875 31.9219 19.9219 32.4375 20.2969 32.8125C20.6719 33.1875 21.1875 33.4219 21.75 33.4219C22.3125 33.4219 22.8281 33.2348 23.2031 32.8594C23.5781 32.4844 23.8125 31.9692 23.8125 31.4062C23.8125 30.8437 23.5781 30.3281 23.2031 29.9531C22.8281 29.5781 22.2891 29.3906 21.75 29.3906Z" fill="#E3EBF0"/>
<path d="M36.2578 28.7461C35.6953 28.7461 35.1328 28.9453 34.7344 29.3437C34.313 29.7656 34.0786 30.2813 34.0786 30.8906C34.0786 31.5 34.313 32.0152 34.7344 32.4375C35.1563 32.8594 35.7188 33.0938 36.2813 33.0938C36.8433 33.0938 37.4058 32.8594 37.7808 32.438C38.2027 32.0161 38.4371 31.5005 38.4371 30.8911C38.4371 30.2813 38.2027 29.7661 37.7808 29.3442C37.3828 28.9453 36.8203 28.7461 36.2578 28.7461ZM42.0235 28.7461C41.461 28.7461 40.8985 28.9453 40.5 29.3437C40.0781 29.7656 39.8438 30.2813 39.8438 30.8906C39.8438 31.5 40.0781 32.0152 40.5 32.4375C40.9219 32.8594 41.4844 33.0938 42.0469 33.0938C42.6094 33.0938 43.1714 32.8594 43.5469 32.438C43.9683 32.0161 44.2027 31.5005 44.2027 30.8911C44.2027 30.2813 43.9683 29.7661 43.5469 29.3442C43.1485 28.9453 42.586 28.7461 42.0235 28.7461Z" fill="#BDD2E2"/>
<path d="M47.1563 29.3438C46.6172 29.3438 46.0781 29.5313 45.7031 29.9063C45.3281 30.2812 45.0938 30.7969 45.0938 31.3598C45.0938 31.9219 45.3281 32.438 45.7031 32.813C46.0781 33.188 46.5938 33.4223 47.1563 33.4223C47.7188 33.4223 48.2348 33.2353 48.6098 32.813C48.9848 32.438 49.2192 31.9223 49.2192 31.3598C49.2192 30.7973 48.9848 30.2812 48.6098 29.9063C48.2344 29.5313 47.6953 29.3438 47.1563 29.3438Z" fill="#E3EBF0"/>
<path d="M30.5156 28.7812H26.9063C25.7344 28.7812 24.75 29.7656 24.75 30.9375C24.75 32.1094 25.7344 33.0938 26.9063 33.0938H30.5156C31.6875 33.0938 32.6723 32.1094 32.6723 30.9375C32.6719 29.7656 31.6875 28.7812 30.5156 28.7812Z" fill="#BDD2E2"/>
<path d="M48.2812 19.2539C47.918 19.2539 47.5547 19.3828 47.2969 19.6406C47.0152 19.875 46.875 20.25 46.875 20.625C46.875 21 47.0156 21.3281 47.2969 21.6094C47.5313 21.8906 47.9062 22.0312 48.2812 22.0312C48.6562 22.0312 49.0312 21.8906 49.2656 21.6094C49.5473 21.375 49.6875 21 49.6875 20.625C49.6875 20.25 49.5469 19.9219 49.2656 19.6406C49.0078 19.3828 48.6445 19.2539 48.2812 19.2539ZM44.5312 19.2539C44.168 19.2539 43.8047 19.3828 43.5469 19.6406C43.2656 19.875 43.125 20.25 43.125 20.625C43.125 21 43.2656 21.375 43.5469 21.6094C43.7813 21.8906 44.1562 22.0312 44.5312 22.0312C44.9062 22.0312 45.2812 21.8906 45.5156 21.6094C45.7969 21.375 45.9375 21 45.9375 20.625C45.9375 20.25 45.7969 19.9219 45.5156 19.6406C45.2578 19.3828 44.8945 19.2539 44.5312 19.2539ZM48.2812 23.9414C47.918 23.9414 47.5547 24.0703 47.2969 24.3281C47.0152 24.5625 46.875 24.9375 46.875 25.3125C46.875 25.6875 47.0156 26.0156 47.2969 26.2969C47.5313 26.5781 47.9062 26.7188 48.2812 26.7188C48.6562 26.7188 49.0312 26.5781 49.2656 26.2969C49.5473 26.0625 49.6875 25.6875 49.6875 25.3125C49.6875 24.9375 49.5469 24.6094 49.2656 24.3281C49.0078 24.0703 48.6445 23.9414 48.2812 23.9414Z" fill="#E3EBF0"/>
<path d="M39.1172 21.5273C38.5547 21.5273 37.9922 21.7266 37.5937 22.125C37.1719 22.5469 36.9375 23.1094 36.9375 23.6719C36.9375 24.2812 37.1719 24.7969 37.5937 25.2187C38.0152 25.6406 38.5781 25.875 39.1406 25.875C39.75 25.875 40.2656 25.6406 40.6406 25.2187C41.062 24.7969 41.2964 24.2344 41.2964 23.6719C41.2964 23.0625 41.062 22.5469 40.6406 22.125C40.2422 21.7266 39.6797 21.5273 39.1172 21.5273ZM33.375 21.5625H25.4531C24.2812 21.5625 23.2969 22.5469 23.2969 23.7187C23.2969 24.8906 24.2812 25.875 25.4531 25.875H33.375C34.5937 25.875 35.5313 24.8906 35.5313 23.7187C35.5313 22.5469 34.5469 21.5625 33.375 21.5625Z" fill="#BDD2E2"/>
<path d="M11.25 23.9414C10.8867 23.9414 10.5234 24.0703 10.2656 24.3281C9.98437 24.5625 9.84375 24.9375 9.84375 25.3125C9.84375 25.6875 9.98437 26.0625 10.2656 26.2969C10.5 26.5781 10.875 26.7187 11.25 26.7187C11.625 26.7187 12 26.5781 12.2344 26.2969C12.5156 26.0625 12.6562 25.6875 12.6562 25.3125C12.6562 24.9375 12.5156 24.6094 12.2344 24.3281C11.9766 24.0703 11.6133 23.9414 11.25 23.9414ZM15 23.9414C14.6367 23.9414 14.2734 24.0703 14.0156 24.3281C13.7344 24.5625 13.5938 24.9375 13.5938 25.3125C13.5938 25.6875 13.7344 26.0625 14.0156 26.2969C14.25 26.5781 14.625 26.7187 15 26.7187C15.375 26.7187 15.75 26.5781 15.9844 26.2969C16.2656 26.0625 16.4062 25.6875 16.4062 25.3125C16.4062 24.9375 16.2656 24.6094 15.9844 24.3281C15.7266 24.0703 15.3633 23.9414 15 23.9414ZM15.9375 28.5937H11.25C10.4531 28.5937 9.84375 29.2031 9.84375 30C9.84375 30.7969 10.4531 31.4062 11.25 31.4062H15.9375C16.7344 31.4062 17.3438 30.7969 17.3438 30C17.3438 29.2031 16.7344 28.5937 15.9375 28.5937ZM11.25 47.3789C10.8867 47.3789 10.5234 47.5078 10.2656 47.7656C9.98437 48 9.84375 48.375 9.84375 48.75C9.84375 49.125 9.98437 49.4531 10.2656 49.7344C10.5 50.0161 10.875 50.1562 11.25 50.1562C11.625 50.1562 12 50.0156 12.2344 49.7344C12.5156 49.5 12.6562 49.125 12.6562 48.75C12.6562 48.375 12.5156 48.0469 12.2344 47.7656C11.9766 47.5078 11.6133 47.3789 11.25 47.3789ZM22.0312 47.3789C21.668 47.3789 21.3047 47.5078 21.0469 47.7656C20.7656 48 20.625 48.375 20.625 48.75C20.625 49.125 20.7656 49.4531 21.0469 49.7344C21.2813 50.0161 21.6562 50.1562 22.0312 50.1562C22.4062 50.1562 22.7812 50.0156 23.0156 49.7344C23.2969 49.5 23.4375 49.125 23.4375 48.75C23.4375 48.375 23.2969 48.0469 23.0156 47.7656C22.7578 47.5078 22.3945 47.3789 22.0312 47.3789ZM25.7812 47.3789C25.418 47.3789 25.0547 47.5078 24.7969 47.7656C24.5156 48 24.375 48.375 24.375 48.75C24.375 49.125 24.5156 49.4531 24.7969 49.7344C25.0313 50.0161 25.4062 50.1562 25.7812 50.1562C26.1562 50.1562 26.5312 50.0156 26.7656 49.7344C27.0469 49.5 27.1875 49.125 27.1875 48.75C27.1875 48.375 27.0469 48.0469 26.7656 47.7656C26.5078 47.5078 26.1445 47.3789 25.7812 47.3789ZM18.2812 47.3437H15.4688C14.6719 47.3437 14.0625 47.9531 14.0625 48.75C14.0625 49.5469 14.6719 50.1562 15.4688 50.1562H18.2812C19.0781 50.1562 19.6875 49.5469 19.6875 48.75C19.6875 47.9531 19.0781 47.3437 18.2812 47.3437ZM31.4062 47.3437H29.5312C28.7344 47.3437 28.125 47.9531 28.125 48.75C28.125 49.5469 28.7344 50.1562 29.5312 50.1562H31.4062C32.2031 50.1562 32.8125 49.5469 32.8125 48.75C32.8125 47.9531 32.2031 47.3437 31.4062 47.3437ZM40.3125 47.3437H35.1562C34.3594 47.3437 33.75 47.9531 33.75 48.75C33.75 49.5469 34.3594 50.1562 35.1562 50.1562H40.3125C41.1094 50.1562 41.7188 49.5469 41.7188 48.75C41.7188 47.9531 41.1094 47.3437 40.3125 47.3437ZM48.2812 47.3789C47.918 47.3789 47.5547 47.5078 47.2969 47.7656C47.0152 48 46.875 48.375 46.875 48.75C46.875 49.125 47.0156 49.4531 47.2969 49.7344C47.5312 50.0161 47.9062 50.1562 48.2812 50.1562C48.6562 50.1562 49.0312 50.0156 49.2656 49.7344C49.5473 49.5 49.6875 49.125 49.6875 48.75C49.6875 48.375 49.5469 48.0469 49.2656 47.7656C49.0078 47.5078 48.6445 47.3789 48.2812 47.3789ZM44.5312 47.3789C44.168 47.3789 43.8047 47.5078 43.5469 47.7656C43.2652 48 43.125 48.375 43.125 48.75C43.125 49.125 43.2656 49.4531 43.5469 49.7344C43.7812 50.0161 44.1562 50.1562 44.5312 50.1562C44.9062 50.1562 45.2812 50.0156 45.5156 49.7344C45.7973 49.5 45.9375 49.125 45.9375 48.75C45.9375 48.375 45.7969 48.0469 45.5156 47.7656C45.2578 47.5078 44.8945 47.3789 44.5312 47.3789ZM48.75 42.6914C48.3867 42.6914 48.0234 42.8203 47.7656 43.0781C47.4839 43.3125 47.3438 43.6875 47.3438 44.0625C47.3438 44.4375 47.4844 44.8125 47.7656 45.0469C48 45.3286 48.375 45.4687 48.75 45.4687C49.125 45.4687 49.5 45.3281 49.7344 45.0469C50.0161 44.8125 50.1562 44.4375 50.1562 44.0625C50.1562 43.6875 50.0156 43.3594 49.7344 43.0781C49.4766 42.8203 49.1133 42.6914 48.75 42.6914ZM37.9688 42.6914C37.6055 42.6914 37.2422 42.8203 36.9844 43.0781C36.7031 43.3125 36.5625 43.6875 36.5625 44.0625C36.5625 44.4375 36.7031 44.8125 36.9844 45.0469C37.2188 45.3281 37.5938 45.4687 37.9688 45.4687C38.3438 45.4687 38.7188 45.3281 38.9531 45.0469C39.2344 44.8125 39.375 44.4375 39.375 44.0625C39.375 43.6875 39.2344 43.3594 38.9531 43.0781C38.6953 42.8203 38.332 42.6914 37.9688 42.6914ZM44.0625 42.6562H41.7188C40.9219 42.6562 40.3125 43.2656 40.3125 44.0625C40.3125 44.8594 40.9219 45.4687 41.7188 45.4687H44.0625C44.8594 45.4687 45.4688 44.8594 45.4688 44.0625C45.4688 43.2656 44.8594 42.6562 44.0625 42.6562Z" fill="#E3EBF0"/>
<path d="M34.1016 35.9648C33.5391 35.9648 32.9766 36.1641 32.5781 36.5625C32.1563 36.9844 31.9219 37.5469 31.9219 38.1094C31.9219 38.7188 32.1563 39.2344 32.5781 39.6563C33 40.0781 33.5625 40.3125 34.125 40.3125C34.6875 40.3125 35.25 40.0781 35.625 39.6563C36.0469 39.2348 36.2813 38.6719 36.2813 38.1094C36.2813 37.5 36.0469 36.9848 35.625 36.5625C35.2266 36.1641 34.6641 35.9648 34.1016 35.9648ZM43.5 36H39.8906C38.7188 36 37.7344 36.9848 37.7344 38.1567C37.7344 39.3286 38.7188 40.313 39.8906 40.313H43.5C43.6439 40.313 43.7845 40.298 43.9214 40.2698C43.703 40.0355 43.5938 39.705 43.5938 39.375C43.5938 39 43.7344 38.625 44.0156 38.3906C44.2734 38.1328 44.6367 38.0039 45 38.0039C45.2273 38.0039 45.4547 38.0545 45.6563 38.1558C45.6558 36.9839 44.6714 36 43.5 36Z" fill="#BDD2E2"/>
<path d="M20.625 33.3164C20.2617 33.3164 19.8984 33.4453 19.6406 33.7031C19.3594 33.9375 19.2188 34.3125 19.2188 34.6875C19.2188 35.0625 19.3594 35.4375 19.6406 35.6719C19.875 35.9531 20.25 36.0938 20.625 36.0938C21 36.0938 21.375 35.9531 21.6094 35.6719C21.8906 35.4375 22.0312 35.0625 22.0312 34.6875C22.0312 34.3125 21.8906 33.9844 21.6094 33.7031C21.3516 33.4453 20.9883 33.3164 20.625 33.3164ZM16.875 33.3164C16.5117 33.3164 16.1484 33.4453 15.8906 33.7031C15.6094 33.9375 15.4688 34.3125 15.4688 34.6875C15.4688 35.0625 15.6094 35.4375 15.8906 35.6719C16.125 35.9531 16.5 36.0938 16.875 36.0938C17.25 36.0938 17.625 35.9531 17.8594 35.6719C18.1406 35.4375 18.2812 35.0625 18.2812 34.6875C18.2812 34.3125 18.1406 33.9844 17.8594 33.7031C17.6016 33.4453 17.2383 33.3164 16.875 33.3164ZM13.125 33.2812H11.25C10.4531 33.2812 9.84375 33.8906 9.84375 34.6875C9.84375 35.4844 10.4531 36.0938 11.25 36.0938H13.125C13.9219 36.0938 14.5312 35.4844 14.5312 34.6875C14.5312 33.8906 13.9219 33.2812 13.125 33.2812Z" fill="#E3EBF0"/>
<path d="M28.3594 36H24.75C23.6283 36 22.6786 36.9023 22.5994 38.0072C22.9284 38.0283 23.25 38.1562 23.4844 38.3906C23.7656 38.6719 23.9062 39 23.9062 39.375C23.9062 39.6127 23.85 39.8503 23.737 40.0519C24.0408 40.2178 24.3862 40.3125 24.75 40.3125H28.3594C29.5312 40.3125 30.5156 39.3281 30.5156 38.1562C30.5156 36.9844 29.5312 36 28.3594 36Z" fill="#BDD2E2"/>
<path d="M34.2188 42.6562H29.0625C28.2656 42.6562 27.6562 43.2656 27.6562 44.0625C27.6562 44.8594 28.2656 45.4688 29.0625 45.4688H34.2188C35.0156 45.4688 35.625 44.8594 35.625 44.0625C35.625 43.2656 35.0156 42.6562 34.2188 42.6562ZM21.0938 42.6562H19.6875C18.8906 42.6562 18.2812 43.2656 18.2812 44.0625C18.2812 44.8594 18.8906 45.4688 19.6875 45.4688H21.0938C21.8906 45.4688 22.5 44.8594 22.5 44.0625C22.5 43.2656 21.8906 42.6562 21.0938 42.6562ZM11.7188 42.6914C11.3555 42.6914 10.9922 42.8203 10.7344 43.0781C10.4531 43.3125 10.3125 43.6875 10.3125 44.0625C10.3125 44.4375 10.4531 44.8125 10.7344 45.0469C10.9687 45.3281 11.3438 45.4688 11.7188 45.4688C12.0938 45.4688 12.4688 45.3281 12.7031 45.0469C12.9844 44.8125 13.125 44.4375 13.125 44.0625C13.125 43.6875 12.9844 43.3594 12.7031 43.0781C12.4453 42.8203 12.082 42.6914 11.7188 42.6914ZM15.4688 42.6914C15.1055 42.6914 14.7422 42.8203 14.4844 43.0781C14.2031 43.3125 14.0625 43.6875 14.0625 44.0625C14.0625 44.4375 14.2031 44.8125 14.4844 45.0469C14.7188 45.3281 15.0938 45.4688 15.4688 45.4688C15.8438 45.4688 16.2187 45.3281 16.4531 45.0469C16.7344 44.8125 16.875 44.4375 16.875 44.0625C16.875 43.6875 16.7344 43.3594 16.4531 43.0781C16.1953 42.8203 15.832 42.6914 15.4688 42.6914ZM24.8438 42.6914C24.4805 42.6914 24.1172 42.8203 23.8594 43.0781C23.5781 43.3125 23.4375 43.6875 23.4375 44.0625C23.4375 44.4375 23.5781 44.8125 23.8594 45.0469C24.0938 45.3281 24.4688 45.4688 24.8438 45.4688C25.2188 45.4688 25.5937 45.3281 25.8281 45.0469C26.1094 44.8125 26.25 44.4375 26.25 44.0625C26.25 43.6875 26.1094 43.3594 25.8281 43.0781C25.5703 42.8203 25.207 42.6914 24.8438 42.6914ZM11.7188 38.0039C11.3555 38.0039 10.9922 38.1328 10.7344 38.3906C10.4531 38.625 10.3125 39 10.3125 39.375C10.3125 39.75 10.4531 40.125 10.7344 40.3594C10.9687 40.6406 11.3438 40.7812 11.7188 40.7812C12.0938 40.7812 12.4688 40.6406 12.7031 40.3594C12.9844 40.125 13.125 39.75 13.125 39.375C13.125 39 12.9844 38.6719 12.7031 38.3906C12.4453 38.1328 12.082 38.0039 11.7188 38.0039ZM22.5 38.0039C22.1367 38.0039 21.7734 38.1328 21.5156 38.3906C21.2344 38.625 21.0938 39 21.0938 39.375C21.0938 39.75 21.2344 40.125 21.5156 40.3594C21.75 40.6406 22.125 40.7812 22.5 40.7812C22.875 40.7812 23.25 40.6406 23.4844 40.3594C23.5875 40.2736 23.6714 40.1686 23.737 40.0523C23.85 39.8503 23.9062 39.6127 23.9062 39.375C23.9062 39 23.7656 38.6719 23.4844 38.3906C23.25 38.1563 22.9284 38.0283 22.5994 38.0067C22.5661 38.0048 22.5333 38.0039 22.5 38.0039ZM18.75 37.9688H16.4062C15.6094 37.9688 15 38.5781 15 39.375C15 40.1719 15.6094 40.7812 16.4062 40.7812H18.75C19.5469 40.7812 20.1562 40.1719 20.1562 39.375C20.1562 38.5781 19.5469 37.9688 18.75 37.9688ZM48.75 38.0039C48.3867 38.0039 48.0234 38.1328 47.7656 38.3906C47.4839 38.625 47.3438 39 47.3438 39.375C47.3438 39.75 47.4844 40.0781 47.7656 40.3594C48 40.6411 48.375 40.7812 48.75 40.7812C49.125 40.7812 49.5 40.6406 49.7344 40.3594C50.0161 40.125 50.1562 39.75 50.1562 39.375C50.1562 39 50.0156 38.6719 49.7344 38.3906C49.4766 38.1328 49.1133 38.0039 48.75 38.0039ZM45 38.0039C44.6367 38.0039 44.2734 38.1328 44.0156 38.3906C43.7344 38.625 43.5938 39 43.5938 39.375C43.5938 39.705 43.703 40.0355 43.9209 40.2694C43.9505 40.3012 43.9819 40.3312 44.0156 40.3589C44.25 40.6406 44.625 40.7812 45 40.7812C45.375 40.7812 45.75 40.6406 45.9844 40.3594C46.2656 40.125 46.4062 39.75 46.4062 39.375C46.4062 39 46.2656 38.6719 45.9844 38.3906C45.8878 38.2941 45.7767 38.2158 45.6567 38.1553C45.4547 38.0545 45.2273 38.0039 45 38.0039Z" fill="#E3EBF0"/>
<path d="M55.7812 57.1875C54.9844 57.1875 54.375 56.5781 54.375 55.7812V6.5625C54.375 6.04688 53.9531 5.625 53.4375 5.625H6.5625C6.04688 5.625 5.625 6.04688 5.625 6.5625V55.7812C5.625 56.5781 5.01562 57.1875 4.21875 57.1875C3.42188 57.1875 2.8125 56.5781 2.8125 55.7812V6.5625C2.8125 4.5 4.5 2.8125 6.5625 2.8125H53.4375C55.5 2.8125 57.1875 4.5 57.1875 6.5625V55.7812C57.1875 56.5781 56.5781 57.1875 55.7812 57.1875Z" fill="#0084FF"/>
<path d="M17.0625 52.1717C16.6875 52.1717 16.3594 52.0311 16.0781 51.7967L13.2656 48.9842C12.9844 48.703 12.8438 48.3749 12.8438 47.9999C12.8438 47.6244 12.9844 47.2494 13.2656 47.015L19.6406 40.7342C20.1563 40.2181 21.0938 40.2181 21.6094 40.7342L24.4219 43.5467C24.7031 43.828 24.8438 44.1561 24.8438 44.5311C24.8438 44.9061 24.7031 45.2811 24.4219 45.5155L18.0469 51.7967C17.7656 52.0311 17.4375 52.1717 17.0625 52.1717ZM16.2188 47.9999L17.0625 48.7963L21.4219 44.4842L20.5781 43.6874L16.2188 47.9999Z" fill="#0084FF"/>
<path d="M21.0938 43.0781C21.0938 42.8438 21.1875 42.6094 21.375 42.4219L23.625 40.1719C24 39.7969 24.5625 39.7969 24.9375 40.1719C25.3125 40.5469 25.3125 41.1094 24.9375 41.4844L22.6875 43.7344C22.3125 44.1094 21.75 44.1094 21.375 43.7344C21.1875 43.5469 21.0938 43.3125 21.0938 43.0781Z" fill="#0084FF"/>
<path d="M33.7031 46.0781C25.5938 46.0781 18.9844 39.5156 18.9844 31.5C18.9844 23.4844 25.5938 16.9219 33.7031 16.9219C41.8125 16.9219 48.4214 23.4844 48.4214 31.5C48.4219 39.5156 41.8125 46.0781 33.7031 46.0781ZM33.7031 19.7344C27.1406 19.7344 21.7969 25.0312 21.7969 31.5C21.7969 37.9687 27.1406 43.2656 33.7031 43.2656C40.2656 43.2656 45.6094 37.9687 45.6094 31.5C45.6094 25.0312 40.2656 19.7344 33.7031 19.7344Z" fill="#F68100"/>
</svg>
