<svg width="60" height="60" viewBox="0 0 60 60" fill="none" xmlns="http://www.w3.org/2000/svg">
<path d="M34.2188 36.5625C33.4219 36.5625 32.8125 35.9531 32.8125 35.1562V6.5625C32.8125 5.76562 33.4219 5.15625 34.2188 5.15625C35.0156 5.15625 35.625 5.76562 35.625 6.5625V35.1562C35.625 35.9531 35.0156 36.5625 34.2188 36.5625Z" fill="#F68100"/>
<path d="M35.1562 11.25H37.0312V25.7812H35.1562V11.25Z" fill="#F68100"/>
<path d="M37.0312 27.1875H35.1562C34.3594 27.1875 33.75 26.5781 33.75 25.7812V11.25C33.75 10.4531 34.3594 9.84375 35.1562 9.84375H37.0312C37.8281 9.84375 38.4375 10.4531 38.4375 11.25V25.7812C38.4375 26.5781 37.8281 27.1875 37.0312 27.1875Z" fill="#F68100"/>
<path d="M32.3438 3.28125H27.6562C26.8594 3.28125 26.25 2.67188 26.25 1.875C26.25 1.07812 26.8594 0.46875 27.6562 0.46875H32.3438C33.1406 0.46875 33.75 1.07812 33.75 1.875C33.75 2.67188 33.1406 3.28125 32.3438 3.28125ZM37.0312 45.9375H22.9688C22.1719 45.9375 21.5625 45.3281 21.5625 44.5312C21.5625 43.7344 22.1719 43.125 22.9688 43.125H37.0312C37.8281 43.125 38.4375 43.7344 38.4375 44.5312C38.4375 45.3281 37.8281 45.9375 37.0312 45.9375Z" fill="#0084FF"/>
<path d="M51.9844 31.0312C51.4688 22.7812 45.9375 15.8906 38.4375 13.2656V6.5625C38.4375 5.76562 37.8281 5.15625 37.0312 5.15625H22.9688C22.1719 5.15625 21.5625 5.76562 21.5625 6.5625V35.1562C21.5625 35.9531 22.1719 36.5625 22.9688 36.5625H37.0312C37.8281 36.5625 38.4375 35.9531 38.4375 35.1562V21.0938C38.4375 20.2969 37.8281 19.6875 37.0312 19.6875C36.2344 19.6875 35.625 20.2969 35.625 21.0938V33.75H24.375V7.96875H35.625V12.5625C34.4062 12.3281 33.1406 12.1875 31.875 12.1875H30C29.2031 12.1875 28.5938 12.7969 28.5938 13.5938C28.5938 14.3906 29.2031 15 30 15H31.875C41.0156 15 48.5156 22.0781 49.1719 31.0781C46.5 31.7344 44.5312 34.125 44.5312 36.9844C44.5312 39.8438 46.5469 42.2812 49.2188 42.8906V52.0312H11.7188C9.65625 52.0312 7.96875 53.7188 7.96875 55.7812C7.96875 57.8438 9.65625 59.5312 11.7188 59.5312H50.625C51.4219 59.5312 52.0312 58.9219 52.0312 58.125V53.4375V42.8906C54.7031 42.2344 56.7188 39.8438 56.7188 36.9844C56.7188 34.0781 54.7031 31.6406 51.9844 31.0312ZM49.2188 56.7188H11.7188C11.2031 56.7188 10.7812 56.2969 10.7812 55.7812C10.7812 55.2656 11.2031 54.8438 11.7188 54.8438H49.2188V56.7188ZM51 40.2656C51 40.2656 50.9531 40.2656 51 40.2656C50.8594 40.2656 50.7656 40.2656 50.625 40.2656C48.7969 40.2656 47.3438 38.8125 47.3438 36.9844C47.3438 36.8906 47.3438 36.7969 47.3438 36.6562C47.4844 34.9687 48.8906 33.7031 50.625 33.7031C52.3125 33.7031 53.7188 35.0156 53.9062 36.6562C53.9062 36.75 53.9062 36.8906 53.9062 36.9844C53.9062 38.6719 52.6406 40.0781 51 40.2656Z" fill="#0084FF"/>
</svg>
