<svg width="60" height="60" viewBox="0 0 60 60" fill="none" xmlns="http://www.w3.org/2000/svg">
<path d="M53.4375 56.7188H6.5625C5.76562 56.7188 5.15625 56.1094 5.15625 55.3125V15C5.15625 14.2031 5.76562 13.5938 6.5625 13.5938H53.4375C54.2344 13.5938 54.8438 14.2031 54.8438 15V55.3125C54.8438 56.1094 54.2344 56.7188 53.4375 56.7188ZM7.96875 53.9062H52.0312V16.4062H7.96875V53.9062Z" fill="#0084FF"/>
<path d="M56.7188 59.5312H3.28125C1.73438 59.5312 0.46875 58.2656 0.46875 56.7188C0.46875 55.1719 1.73438 53.9062 3.28125 53.9062H56.7188C58.2656 53.9062 59.5312 55.1719 59.5312 56.7188C59.5312 58.2656 58.2656 59.5312 56.7188 59.5312Z" fill="#0084FF"/>
<path d="M26.1094 36.5625H17.3438C14.4844 36.5625 12.1875 34.2656 12.1875 31.4062C12.1875 28.5469 14.4844 26.25 17.3438 26.25H44.0625C44.8594 26.25 45.4688 26.8594 45.4688 27.6562C45.4688 28.4531 44.8594 29.0625 44.0625 29.0625H17.3438C16.0312 29.0625 15 30.0938 15 31.4062C15 32.7188 16.0312 33.75 17.3438 33.75H26.1094C26.9062 33.75 27.5156 34.3594 27.5156 35.1562C27.5156 35.9531 26.9062 36.5625 26.1094 36.5625Z" fill="#F68100"/>
<path d="M36.375 44.7188L33.4219 34.3594L43.7812 37.3594L37.7812 38.7187L36.375 44.7188Z" fill="#0084FF"/>
<path d="M45.0469 44.0159L40.5469 39.5159L44.1094 38.719C44.7188 38.5784 45.1875 38.0159 45.1875 37.4065C45.1875 36.7503 44.7656 36.1878 44.1563 36.0003L33.7969 33.0471C33.3281 32.9065 32.7656 33.0471 32.4375 33.4221C32.0625 33.7971 31.9219 34.3128 32.0625 34.7815L35.0156 45.094C35.2031 45.7034 35.7188 46.1253 36.375 46.1253H36.4219C37.0781 46.1253 37.5938 45.6565 37.7344 45.0471L38.5313 41.5315L43.0313 46.0315C43.3125 46.3128 43.6875 46.4534 44.0156 46.4534C44.3438 46.4534 44.7188 46.3128 45 46.0315C45.6094 45.4221 45.6094 44.5784 45.0469 44.0159Z" fill="#0084FF"/>
</svg>
