<svg width="42" height="26" viewBox="0 0 42 26" fill="none" xmlns="http://www.w3.org/2000/svg">
<path d="M20.9999 0.125519C13.0921 0.125519 5.02039 5.57214 0.459453 13.9721C0.196953 14.4315 0.360759 15.0555 0.852946 15.318C1.31232 15.5476 1.90295 15.3832 2.16545 14.9238C6.36545 7.2457 13.9124 2.09427 20.9999 2.09427C28.0874 2.09427 35.6344 7.2457 39.8344 14.9238C39.9985 15.252 40.3593 15.4487 40.6874 15.4487C40.8515 15.4487 41.0157 15.4164 41.1469 15.318C41.6391 15.0555 41.8029 14.4643 41.5404 13.9721C36.9795 5.57214 28.9078 0.125519 20.9999 0.125519ZM20.9999 7.01614C17.7515 7.01614 15.0937 9.67395 15.0937 12.9224C15.0937 16.1708 17.7515 18.8286 20.9999 18.8286C24.2484 18.8286 26.9062 16.1708 26.9062 12.9224C26.9062 9.67395 24.2484 7.01614 20.9999 7.01614ZM20.9999 8.98489C23.1656 8.98489 24.9374 10.7568 24.9374 12.9224C24.9374 15.088 23.1656 16.8599 20.9999 16.8599C18.8343 16.8599 17.0624 15.088 17.0624 12.9224C17.0624 10.7568 18.8343 8.98489 20.9999 8.98489ZM6.31507 13.4582C6.12531 13.4418 5.92671 13.4802 5.74214 13.5786C5.24995 13.8411 5.08614 14.4316 5.34864 14.9238C9.12208 21.8473 14.8313 25.8506 20.9673 25.8506C27.1032 25.8506 32.8124 21.8801 36.5859 14.9238C36.8484 14.4316 36.6846 13.8411 36.1924 13.5786C35.7002 13.3161 35.1091 13.4799 34.8466 13.9721C31.4013 20.2721 26.3486 23.8492 20.9346 23.8492C15.5205 23.8492 10.5326 20.2393 7.08732 13.9721C6.92326 13.6645 6.63134 13.4854 6.31507 13.4582Z" fill="white"/>
</svg>
