<svg width="27" height="29" viewBox="0 0 27 29" fill="none" xmlns="http://www.w3.org/2000/svg">
<path d="M13.7188 4C8.11572 4 3.5625 8.55322 3.5625 14.1562C3.5625 16.1826 4.21558 18.0381 5.23486 19.625L3.48926 24.5017L8.92139 22.9697C10.3618 23.7571 11.9609 24.3125 13.7188 24.3125C19.3218 24.3125 23.875 19.7593 23.875 14.1562C23.875 8.55322 19.3218 4 13.7188 4ZM13.7188 5.5625C18.4734 5.5625 22.3125 9.40161 22.3125 14.1562C22.3125 18.9109 18.4734 22.75 13.7188 22.75C12.0891 22.75 10.5815 22.2922 9.27539 21.5049L8.98852 21.3279L5.97949 22.1702L6.95605 19.4602L6.71802 19.1306C5.71704 17.7207 5.125 16.0117 5.125 14.1562C5.125 9.40161 8.96411 5.5625 13.7188 5.5625ZM9.91016 8.6875C9.73315 8.6875 9.44019 8.76074 9.18994 9.05371C8.9458 9.34058 8.25 10.0425 8.25 11.4707C8.25 12.8928 9.21436 14.2722 9.34863 14.4675C9.48291 14.6628 11.2468 17.5864 13.9446 18.8438C14.5854 19.1428 15.0859 19.3198 15.4766 19.4541C16.1235 19.6738 16.7095 19.6433 17.1733 19.5701C17.6921 19.4846 18.7664 18.8682 18.9922 18.1907C19.2119 17.5132 19.218 16.9333 19.1448 16.8113C19.0837 16.6892 18.9006 16.616 18.6321 16.4756C18.3635 16.3291 17.0391 15.6272 16.7949 15.5356C16.5508 15.4319 16.3677 15.3892 16.1846 15.676C16.0076 15.969 15.4949 16.6221 15.3362 16.8113C15.1775 17.0066 15.0249 17.031 14.7563 16.8845C14.4817 16.738 13.615 16.4329 12.5896 15.4441C11.79 14.675 11.2468 13.729 11.0942 13.436C10.9355 13.1431 11.0759 12.9905 11.2102 12.8501C11.3323 12.7158 11.4788 12.5083 11.613 12.3374C11.7473 12.1726 11.79 12.0444 11.8816 11.8552C11.9731 11.6599 11.9304 11.489 11.8633 11.3486C11.79 11.2021 11.2529 9.77393 11.0332 9.19409C10.8135 8.63257 10.5876 8.70581 10.4229 8.69971C10.2703 8.6875 10.0872 8.6875 9.91016 8.6875Z" fill="#7FB688"/>
</svg>
